<svg xmlns="http://www.w3.org/2000/svg" viewBox="0 0 500 500" width="500" height="500" style="width: 100%; height: 100%; transform: translate3d(0px, 0px, 0px);" preserveAspectRatio="xMidYMid meet"><defs><clipPath id="__lottie_element_43"><rect width="500" height="500" x="0" y="0"></rect></clipPath></defs><g clip-path="url(#__lottie_element_43)"><g style="display: block;" transform="matrix(1.0839999914169312,0,0,1.0839999914169312,-27,-19)" opacity="1"><g opacity="1" transform="matrix(1,0,0,1,0,0)"><g opacity="1" transform="matrix(-0.9932020306587219,0.11640311032533646,-0.11640311032533646,-0.9932020306587219,305.5109558105469,304.6521911621094)"><path fill="rgb(0,0,0)" fill-opacity="1" d=" M-98.99400329589844,101.69000244140625 C-98.99400329589844,101.69000244140625 -46.57600021362305,31.798999786376953 -46.57600021362305,31.798999786376953 C-44.25699996948242,28.707000732421875 -44.882999420166016,24.319000244140625 -47.97600173950195,21.999000549316406 C-51.069000244140625,19.68000030517578 -55.45800018310547,20.305999755859375 -57.7760009765625,23.39900016784668 C-57.7760009765625,23.39900016784668 -97.59400177001953,76.48999786376953 -97.59400177001953,76.48999786376953 C-97.59400177001953,76.48999786376953 -97.59400177001953,53.8120002746582 -97.59400177001953,53.8120002746582 C-97.572998046875,12.244999885559082 -79.39399719238281,-27.034000396728516 -47.720001220703125,-53.95199966430664 C-18.916000366210938,-78.43000030517578 17.691999435424805,-90.22799682617188 55.374000549316406,-87.16899871826172 C93.0510025024414,-84.11100006103516 127.28099822998047,-66.56300354003906 151.75999450683594,-37.75899887084961 C154.26499938964844,-34.8120002746582 158.68299865722656,-34.45500183105469 161.6269989013672,-36.95800018310547 C164.57200622558594,-39.46099853515625 164.9320068359375,-43.87900161743164 162.42799377441406,-46.82500076293945 C135.52699279785156,-78.47899627685547 97.91000366210938,-97.76200103759766 56.50600051879883,-101.12300109863281 C15.104999542236328,-104.48999786376953 -25.132999420166016,-91.5199966430664 -56.7859992980957,-64.62000274658203 C-91.59400177001953,-35.03900146484375 -111.57099914550781,8.125 -111.59400177001953,53.80799865722656 C-111.59400177001953,53.80799865722656 -111.59400177001953,76.48999786376953 -111.59400177001953,76.48999786376953 C-111.59400177001953,76.48999786376953 -151.41200256347656,23.39900016784668 -151.41200256347656,23.39900016784668 C-153.73199462890625,20.305999755859375 -158.11900329589844,19.67799949645996 -161.21200561523438,21.999000549316406 C-164.30499267578125,24.319000244140625 -164.9320068359375,28.707000732421875 -162.61199951171875,31.798999786376953 C-162.61199951171875,31.798999786376953 -110.19400024414062,101.69000244140625 -110.19400024414062,101.69000244140625 C-110.16799926757812,101.7239990234375 -110.13800048828125,101.75399780273438 -110.11100006103516,101.78800201416016 C-110.00499725341797,101.92400360107422 -109.89299774169922,102.05500030517578 -109.7770004272461,102.18299865722656 C-109.72100067138672,102.24600219726562 -109.66600036621094,102.30899810791016 -109.60900115966797,102.36900329589844 C-109.45899963378906,102.52300262451172 -109.3010025024414,102.66899871826172 -109.13800048828125,102.80799865722656 C-109.11199951171875,102.83200073242188 -109.08799743652344,102.85700225830078 -109.06099700927734,102.87799835205078 C-108.86699676513672,103.04000091552734 -108.66300201416016,103.18900299072266 -108.4520034790039,103.3280029296875 C-108.40399932861328,103.36000061035156 -108.35199737548828,103.38800048828125 -108.3030014038086,103.41899871826172 C-108.13800048828125,103.52200317382812 -107.97000122070312,103.62100219726562 -107.79499816894531,103.71099853515625 C-107.7300033569336,103.74400329589844 -107.66400146484375,103.77400207519531 -107.5979995727539,103.80500030517578 C-107.43299865722656,103.88300323486328 -107.26499938964844,103.95700073242188 -107.09400177001953,104.02200317382812 C-107.02300262451172,104.04900360107422 -106.9520034790039,104.07599639892578 -106.88099670410156,104.0999984741211 C-106.70800018310547,104.16000366210938 -106.53299713134766,104.21099853515625 -106.3550033569336,104.25700378417969 C-106.28299713134766,104.2770004272461 -106.21099853515625,104.2969970703125 -106.13700103759766,104.31400299072266 C-105.95099639892578,104.3550033569336 -105.76200103759766,104.38700103759766 -105.57099914550781,104.41400146484375 C-105.50399780273438,104.4229965209961 -105.43900299072266,104.43699645996094 -105.37200164794922,104.44400024414062 C-105.11699676513672,104.47200012207031 -104.85700225830078,104.48999786376953 -104.59400177001953,104.48999786376953 C-104.33100128173828,104.48999786376953 -104.0719985961914,104.47200012207031 -103.81600189208984,104.44400024414062 C-103.7490005493164,104.43699645996094 -103.68399810791016,104.4229965209961 -103.61799621582031,104.41400146484375 C-103.427001953125,104.38700103759766 -103.23699951171875,104.3550033569336 -103.0510025024414,104.31400299072266 C-102.97699737548828,104.2969970703125 -102.90599822998047,104.2770004272461 -102.83300018310547,104.25700378417969 C-102.65499877929688,104.21099853515625 -102.4800033569336,104.16000366210938 -102.30699920654297,104.0999984741211 C-102.23600006103516,104.07599639892578 -102.16500091552734,104.04900360107422 -102.09400177001953,104.02200317382812 C-101.9229965209961,103.95700073242188 -101.75499725341797,103.88300323486328 -101.58999633789062,103.80500030517578 C-101.52400207519531,103.77400207519531 -101.45800018310547,103.74400329589844 -101.39299774169922,103.71099853515625 C-101.21900177001953,103.62100219726562 -101.05000305175781,103.52200317382812 -100.88500213623047,103.41899871826172 C-100.83599853515625,103.38800048828125 -100.78500366210938,103.36000061035156 -100.73600006103516,103.3280029296875 C-100.5250015258789,103.18900299072266 -100.32099914550781,103.04000091552734 -100.12699890136719,102.87799835205078 C-100.0999984741211,102.85700225830078 -100.0770034790039,102.83200073242188 -100.05000305175781,102.80799865722656 C-99.88700103759766,102.66899871826172 -99.72899627685547,102.52300262451172 -99.5790023803711,102.36900329589844 C-99.52200317382812,102.30899810791016 -99.46800231933594,102.24600219726562 -99.41100311279297,102.18299865722656 C-99.29499816894531,102.05500030517578 -99.18299865722656,101.92400360107422 -99.0770034790039,101.78800201416016 C-99.0510025024414,101.75399780273438 -99.0199966430664,101.7239990234375 -98.99400329589844,101.69000244140625z"></path></g><g opacity="1" transform="matrix(-0.9932020306587219,0.11640311032533646,-0.11640311032533646,-0.9932020306587219,205.550048828125,210.10618591308594)"><path fill="rgb(0,0,0)" fill-opacity="1" d=" M162.61199951171875,-31.84000015258789 C162.61199951171875,-31.84000015258789 110.19400024414062,-101.73100280761719 110.19400024414062,-101.73100280761719 C110.16999816894531,-101.76399993896484 110.13999938964844,-101.79199981689453 110.11499786376953,-101.8239974975586 C110.00599670410156,-101.96499633789062 109.88999938964844,-102.0989990234375 109.77100372314453,-102.23100280761719 C109.71700286865234,-102.29000091552734 109.66699981689453,-102.3499984741211 109.61100006103516,-102.40699768066406 C109.45800018310547,-102.56500244140625 109.2969970703125,-102.71399688720703 109.12999725341797,-102.85700225830078 C109.10600280761719,-102.87699890136719 109.08499908447266,-102.89900207519531 109.06099700927734,-102.91899871826172 C108.86699676513672,-103.08000183105469 108.66300201416016,-103.2300033569336 108.4520034790039,-103.37000274658203 C108.40499877929688,-103.4010009765625 108.3550033569336,-103.427001953125 108.30699920654297,-103.45700073242188 C108.13999938964844,-103.56199645996094 107.96900177001953,-103.66100311279297 107.79399871826172,-103.75199890136719 C107.72899627685547,-103.78500366210938 107.66500091552734,-103.81500244140625 107.5989990234375,-103.84500122070312 C107.43299865722656,-103.92400360107422 107.26499938964844,-103.99700164794922 107.09200286865234,-104.06400299072266 C107.02200317382812,-104.08999633789062 106.9530029296875,-104.11599731445312 106.88300323486328,-104.14099884033203 C106.70899963378906,-104.20099639892578 106.53199768066406,-104.25299835205078 106.35299682617188,-104.29900360107422 C106.28099822998047,-104.31800079345703 106.21099853515625,-104.33799743652344 106.13800048828125,-104.3550033569336 C105.9520034790039,-104.39700317382812 105.76100158691406,-104.4280014038086 105.56999969482422,-104.45500183105469 C105.50399780273438,-104.46499633789062 105.43800354003906,-104.47799682617188 105.37200164794922,-104.48600006103516 C105.11599731445312,-104.51399993896484 104.85800170898438,-104.53099822998047 104.59400177001953,-104.53099822998047 C104.33100128173828,-104.53099822998047 104.07099914550781,-104.51399993896484 103.81500244140625,-104.48600006103516 C103.7490005493164,-104.47799682617188 103.68299865722656,-104.46499633789062 103.61699676513672,-104.45500183105469 C103.42500305175781,-104.4280014038086 103.23600006103516,-104.39700317382812 103.04900360107422,-104.3550033569336 C102.97699737548828,-104.33799743652344 102.90699768066406,-104.31800079345703 102.83499908447266,-104.29900360107422 C102.65599822998047,-104.25299835205078 102.4800033569336,-104.20099639892578 102.30599975585938,-104.14099884033203 C102.23600006103516,-104.11599731445312 102.16600036621094,-104.08999633789062 102.09500122070312,-104.06400299072266 C101.9229965209961,-103.99700164794922 101.75499725341797,-103.92400360107422 101.58899688720703,-103.84500122070312 C101.52300262451172,-103.81500244140625 101.45800018310547,-103.78500366210938 101.39299774169922,-103.75199890136719 C101.21700286865234,-103.66100311279297 101.0469970703125,-103.56199645996094 100.87999725341797,-103.45700073242188 C100.83200073242188,-103.427001953125 100.78399658203125,-103.4010009765625 100.73699951171875,-103.37000274658203 C100.5260009765625,-103.2300033569336 100.31999969482422,-103.08000183105469 100.1259994506836,-102.91899871826172 C100.10199737548828,-102.89900207519531 100.08100128173828,-102.87699890136719 100.05699920654297,-102.85700225830078 C99.88999938964844,-102.71399688720703 99.7300033569336,-102.56500244140625 99.5770034790039,-102.40699768066406 C99.52100372314453,-102.3499984741211 99.47000122070312,-102.29000091552734 99.41699981689453,-102.23100280761719 C99.2979965209961,-102.0989990234375 99.18199920654297,-101.96499633789062 99.072998046875,-101.8239974975586 C99.0479965209961,-101.79199981689453 99.01899719238281,-101.76399993896484 98.99500274658203,-101.73100280761719 C98.99500274658203,-101.73100280761719 46.57699966430664,-31.84000015258789 46.57699966430664,-31.84000015258789 C44.25699996948242,-28.746999740600586 44.88199996948242,-24.360000610351562 47.974998474121094,-22.040000915527344 C51.06800079345703,-19.7189998626709 55.45600128173828,-20.347999572753906 57.7760009765625,-23.440000534057617 C57.7760009765625,-23.440000534057617 97.59400177001953,-76.53099822998047 97.59400177001953,-76.53099822998047 C97.59400177001953,-76.53099822998047 97.59400177001953,-53.847999572753906 97.59400177001953,-53.847999572753906 C97.59700012207031,-12.24899959564209 79.41899871826172,27.05900001525879 47.720001220703125,53.99800109863281 C-11.741000175476074,104.53099822998047 -101.22799682617188,97.26499938964844 -151.75999450683594,37.80500030517578 C-154.26400756835938,34.85900115966797 -158.6820068359375,34.499000549316406 -161.6280059814453,37.00400161743164 C-164.57400512695312,39.507999420166016 -164.93099975585938,43.92499923706055 -162.42799377441406,46.87099838256836 C-131.70700073242188,83.0199966430664 -87.89600372314453,101.61100006103516 -43.80699920654297,101.61100006103516 C-8.199999809265137,101.61100006103516 27.590999603271484,89.47599792480469 56.7859992980957,64.66600036621094 C91.62000274658203,35.0620002746582 111.59700012207031,-8.135000228881836 111.59400177001953,-53.8489990234375 C111.59400177001953,-53.8489990234375 111.59400177001953,-76.53099822998047 111.59400177001953,-76.53099822998047 C111.59400177001953,-76.53099822998047 151.41299438476562,-23.440000534057617 151.41299438476562,-23.440000534057617 C152.78799438476562,-21.606000900268555 154.88900756835938,-20.638999938964844 157.01699829101562,-20.639999389648438 C158.47900390625,-20.639999389648438 159.95199584960938,-21.09600067138672 161.21200561523438,-22.040000915527344 C164.3040008544922,-24.360000610351562 164.9320068359375,-28.746999740600586 162.61199951171875,-31.84000015258789z"></path></g></g><g opacity="1" transform="matrix(1,0,0,1,0,0)"><g opacity="1" transform="matrix(1,0,0,1,257.0799865722656,254.572998046875)"><path stroke-linecap="round" stroke-linejoin="round" fill-opacity="0" stroke="rgb(0,0,0)" stroke-opacity="1" stroke-width="14" d=" M16.332000732421875,-34.7140007019043 C16.332000732421875,-34.7140007019043 -7.191999912261963,-34.7140007019043 -7.191999912261963,-34.7140007019043 C-15.769000053405762,-34.70800018310547 -22.715999603271484,-27.75 -22.709999084472656,-19.17300033569336 C-22.70599937438965,-12.83899974822998 -18.854000091552734,-7.14300012588501 -12.977999687194824,-4.7779998779296875 C-12.977999687194824,-4.7779998779296875 10.904999732971191,4.7789998054504395 10.904999732971191,4.7789998054504395 C18.861000061035156,7.980000019073486 22.715999603271484,17.025999069213867 19.514999389648438,24.98200035095215 C17.149999618530273,30.857999801635742 11.454000473022461,34.709999084472656 5.11899995803833,34.7140007019043 C5.11899995803833,34.7140007019043 -18.381000518798828,34.7140007019043 -18.381000518798828,34.7140007019043"></path></g><g opacity="1" transform="matrix(1,0,0,1,0,0)"><path stroke-linecap="round" stroke-linejoin="round" fill-opacity="0" stroke="rgb(0,0,0)" stroke-opacity="1" stroke-width="14" d=" M256.0559997558594,300.85699462890625 C256.0559997558594,300.85699462890625 256.0559997558594,289.2969970703125 256.0559997558594,289.2969970703125"></path></g><g opacity="1" transform="matrix(1,0,0,1,256.0559997558594,254.572998046875)"><path stroke-linecap="round" stroke-linejoin="round" fill-opacity="0" stroke="rgb(0,0,0)" stroke-opacity="1" stroke-width="14" d=" M0,-69.427001953125 C38.34299850463867,-69.427001953125 69.427001953125,-38.34400177001953 69.427001953125,0 C69.427001953125,38.34299850463867 38.34299850463867,69.427001953125 0,69.427001953125 C-38.34400177001953,69.427001953125 -69.427001953125,38.34299850463867 -69.427001953125,0 C-69.427001953125,-38.34400177001953 -38.34400177001953,-69.427001953125 0,-69.427001953125z"></path></g><g opacity="1" transform="matrix(1,0,0,1,0,0)"><path stroke-linecap="round" stroke-linejoin="round" fill-opacity="0" stroke="rgb(0,0,0)" stroke-opacity="1" stroke-width="14" d=" M256.0559997558594,219.87100219726562 C256.0559997558594,219.87100219726562 256.0559997558594,208.28799438476562 256.0559997558594,208.28799438476562"></path></g></g></g></g></svg>