<svg xmlns="http://www.w3.org/2000/svg" viewBox="0 0 500 500" width="500" height="500" style="width: 100%; height: 100%; transform: translate3d(0px, 0px, 0px);" preserveAspectRatio="xMidYMid meet"><defs><clipPath id="__lottie_element_48"><rect width="500" height="500" x="0" y="0"></rect></clipPath></defs><g clip-path="url(#__lottie_element_48)"><g style="display: block;" transform="matrix(1.1160000562667847,0,0,1.1160000562667847,-20,-32)" opacity="1"><g opacity="1" transform="matrix(1,0.000001683415916886588,-0.000001683415916886588,1,350.6260070800781,224.60000610351562)"><path fill="rgb(0,0,0)" fill-opacity="1" d=" M68.7249984741211,115.1449966430664 C68.68499755859375,115.01599884033203 68.63999938964844,114.88700103759766 68.59200286865234,114.76000213623047 C68.59200286865234,114.76000213623047 6.955999851226807,-46.54899978637695 6.955999851226807,-46.54899978637695 C20.038000106811523,-60.45899963378906 22.621999740600586,-82.10399627685547 11.947999954223633,-98.89800262451172 C8.442999839782715,-104.322998046875 2.8910000324249268,-108.67400360107422 -2.4790000915527344,-112.88200378417969 C-14.482999801635742,-122.28600311279297 -21.624000549316406,-128.91299438476562 -19.583999633789062,-141.625 C-19.12299919128418,-144.4980010986328 -19.750999450683594,-147.41900634765625 -21.35300064086914,-149.84800720214844 C-24.874000549316406,-155.18499755859375 -32.08100128173828,-156.66099548339844 -37.41600036621094,-153.14300537109375 C-54.58599853515625,-141.8260040283203 -65.68499755859375,-124.25 -68.6719970703125,-103.6520004272461 C-71.26799774169922,-85.73300170898438 -67.39600372314453,-66.72100067138672 -58.308998107910156,-52.792999267578125 C-51.638999938964844,-42.56800079345703 -42.965999603271484,-36.117000579833984 -33.41899871826172,-33.65999984741211 C-33.41899871826172,-33.65999984741211 7.565999984741211,133.80099487304688 7.565999984741211,133.80099487304688 C7.5980000495910645,133.93299865722656 7.633999824523926,134.06199645996094 7.673999786376953,134.1909942626953 C10.218000411987305,142.34500122070312 15.784000396728516,149.02000427246094 23.349000930786133,152.98699951171875 C27.996999740600586,155.4250030517578 33.05799865722656,156.66099548339844 38.1609992980957,156.66099548339844 C41.36199951171875,156.66099548339844 44.58000183105469,156.1739959716797 47.722999572753906,155.19400024414062 C55.87699890136719,152.64999389648438 62.55099868774414,147.0850067138672 66.51799774169922,139.52000427246094 C70.48400115966797,131.95599365234375 71.26899719238281,123.29900360107422 68.7249984741211,115.1449966430664z M-47.42100143432617,-59.89500045776367 C-54.827999114990234,-71.25 -57.9630012512207,-86.91100311279297 -55.805999755859375,-101.78800201416016 C-54.15999984741211,-113.14299774169922 -48.797000885009766,-128.822998046875 -32.801998138427734,-140.52499389648438 C-34.340999603271484,-121.33000183105469 -20.639999389648438,-110.59500122070312 -10.496999740600586,-102.64700317382812 C-5.763000011444092,-98.93800354003906 -1.2920000553131104,-95.43499755859375 1.003000020980835,-91.88500213623047 C9.690999984741211,-78.21399688720703 5.735000133514404,-59.87300109863281 -7.7789998054504395,-51.02199935913086 C-15.142000198364258,-46.268001556396484 -21.554000854492188,-44.95899963378906 -26.993000030517578,-45.582000732421875 C-27.06800079345703,-45.595001220703125 -27.145000457763672,-45.60100173950195 -27.222000122070312,-45.61199951171875 C-37.534000396728516,-46.902000427246094 -44.316001892089844,-55.137001037597656 -47.42100143432617,-59.89500045776367z M55.00600051879883,133.4810028076172 C52.652000427246094,137.97000122070312 48.691001892089844,141.27499389648438 43.85200119018555,142.78500366210938 C33.92100143432617,145.8800048828125 23.327999114990234,140.3769989013672 20.141000747680664,130.49899291992188 C20.141000747680664,130.49899291992188 -19.83099937438965,-32.82400131225586 -19.83099937438965,-32.82400131225586 C-14.529999732971191,-33.49300003051758 -9.131999969482422,-35.292999267578125 -3.7960000038146973,-38.26300048828125 C-3.7960000038146973,-38.26300048828125 56.369998931884766,119.1989974975586 56.369998931884766,119.1989974975586 C57.8129997253418,123.98400115966797 57.33000183105469,129.04800415039062 55.00600051879883,133.4810028076172z"></path></g><g opacity="1" transform="matrix(1,0,0,1,182.02099609375,375.5)"><path fill="rgb(0,0,0)" fill-opacity="1" d=" M102.52100372314453,30.84000015258789 C65.77899932861328,-25.690000534057617 -10.104000091552734,-41.78799819946289 -66.63500213623047,-5.046999931335449 C-81.06600189208984,4.333000183105469 -93.13999938964844,16.408000946044922 -102.52100372314453,30.84000015258789 C-104.47699737548828,33.849998474121094 -103.62300109863281,37.875 -100.61299896240234,39.832000732421875 C-97.60299682617188,41.78799819946289 -93.5780029296875,40.935001373291016 -91.62100219726562,37.92399978637695 C-83.23799896240234,25.027999877929688 -72.4469985961914,14.236000061035156 -59.54999923706055,5.854000091552734 C-9.029000282287598,-26.982999801635742 58.78499984741211,-12.595999717712402 91.62100219726562,37.92399978637695 C92.86699676513672,39.84000015258789 94.94999694824219,40.882999420166016 97.0770034790039,40.882999420166016 C98.29100036621094,40.882999420166016 99.51899719238281,40.542999267578125 100.61299896240234,39.832000732421875 C103.62300109863281,37.875 104.47699737548828,33.849998474121094 102.52100372314453,30.84000015258789z"></path></g><g opacity="1" transform="matrix(1,-0.0000011909514796570875,0.0000011909514796570875,1,183.10000610351562,253.5)"><path fill="rgb(0,0,0)" fill-opacity="1" d=" M-76.60600280761719,0.0010000000474974513 C-76.60600280761719,42.242000579833984 -42.24100112915039,76.60600280761719 0,76.60600280761719 C42.24100112915039,76.60600280761719 76.60600280761719,42.242000579833984 76.60600280761719,0.0010000000474974513 C76.60600280761719,-3.2760000228881836 76.3759994506836,-6.499000072479248 75.9749984741211,-9.668000221252441 C75.96299743652344,-10.092000007629395 75.91000366210938,-10.517000198364258 75.81300354003906,-10.9399995803833 C70.48600006103516,-48.01499938964844 38.525001525878906,-76.60600280761719 0,-76.60600280761719 C-27.809999465942383,-76.60600280761719 -52.20199966430664,-61.707000732421875 -65.625,-39.474998474121094 C-65.9489974975586,-39.042999267578125 -66.21700286865234,-38.58100128173828 -66.41899871826172,-38.09700012207031 C-72.88600158691406,-26.865999221801758 -76.60600280761719,-13.86299991607666 -76.60600280761719,0.0010000000474974513z M0,63.60599899291992 C-35.073001861572266,63.60599899291992 -63.60599899291992,35.073001861572266 -63.60599899291992,0.0010000000474974513 C-63.60599899291992,-8.793999671936035 -61.81100082397461,-17.17799949645996 -58.56800079345703,-24.804000854492188 C-36.16699981689453,-4.822999954223633 -6.791999816894531,6.492000102996826 23.357999801635742,6.500999927520752 C23.357999801635742,6.500999927520752 23.423999786376953,6.500999927520752 23.423999786376953,6.500999927520752 C37.207000732421875,6.500999927520752 50.68299865722656,4.23199987411499 63.599998474121094,-0.24500000476837158 C63.60100173950195,-0.16300000250339508 63.60599899291992,-0.08100000023841858 63.60599899291992,0.0010000000474974513 C63.60599899291992,35.073001861572266 35.073001861572266,63.60599899291992 0,63.60599899291992z M0,-63.60599899291992 C30.424999237060547,-63.60599899291992 55.91600036621094,-42.12799835205078 62.14099884033203,-13.541999816894531 C49.74399948120117,-8.869000434875488 36.74599838256836,-6.499000072479248 23.422000885009766,-6.499000072479248 C23.422000885009766,-6.499000072479248 23.363000869750977,-6.499000072479248 23.363000869750977,-6.499000072479248 C-4.579999923706055,-6.506999969482422 -31.77899932861328,-17.375999450683594 -52.0620002746582,-36.474998474121094 C-40.54399871826172,-52.86399841308594 -21.509000778198242,-63.60599899291992 0,-63.60599899291992z"></path></g></g></g></svg>