<svg xmlns="http://www.w3.org/2000/svg" viewBox="0 0 500 500" width="500" height="500" style="width: 100%; height: 100%; transform: translate3d(0px, 0px, 0px);" preserveAspectRatio="xMidYMid meet"><defs><clipPath id="__lottie_element_53"><rect width="500" height="500" x="0" y="0"></rect></clipPath></defs><g clip-path="url(#__lottie_element_53)"><g style="display: block;" transform="matrix(1,0,0,1,-4,12)" opacity="1"><g opacity="1" transform="matrix(1,0,0,1,247.5,250.5)"><path stroke-linecap="butt" stroke-linejoin="miter" fill-opacity="0" stroke-miterlimit="4" stroke="rgb(0,0,0)" stroke-opacity="1" stroke-width="13" d=" M171,171 C171,171 -171,171 -171,171 C-171,171 -171,-171 -171,-171 C-171,-171 171,-171 171,-171 C171,-171 171,171 171,171z"></path></g><g opacity="1" transform="matrix(1,0,0,1,196,302)"><path fill="rgb(0,0,0)" fill-opacity="1" d=" M119.5,119.5 C119.5,119.5 -119.5,119.5 -119.5,119.5 C-119.5,119.5 -119.5,-119.5 -119.5,-119.5 C-119.5,-119.5 119.5,-119.5 119.5,-119.5 C119.5,-119.5 119.5,119.5 119.5,119.5z"></path></g></g></g></svg>