<svg xmlns="http://www.w3.org/2000/svg" viewBox="0 0 500 500" width="500" height="500" style="width: 100%; height: 100%; transform: translate3d(0px, 0px, 0px);" preserveAspectRatio="xMidYMid meet"><defs><clipPath id="__lottie_element_39"><rect width="500" height="500" x="0" y="0"></rect></clipPath></defs><g clip-path="url(#__lottie_element_39)"><g style="display: block;" transform="matrix(1.0800000429153442,0,0,1.0800000429153442,-23,-13)" opacity="1"><g opacity="1" transform="matrix(1,0,0,1,250.19400024414062,240.5)"><path stroke-linecap="round" stroke-linejoin="round" fill-opacity="0" stroke="rgb(0,0,0)" stroke-opacity="1" stroke-width="14" d=" M-46.81999969482422,-62.24700164794922 C-82.35199737548828,-17.29199981689453 -113.98799896240234,22.732999801635742 -113.98799896240234,22.732999801635742 C-120.06099700927734,29.79400062561035 -119.25900268554688,40.44200134277344 -112.1969985961914,46.513999938964844 C-109.12999725341797,49.152000427246094 -105.21700286865234,50.597999572753906 -101.1719970703125,50.590999603271484 C-101.1719970703125,50.590999603271484 -101.1719970703125,50.590999603271484 -101.1719970703125,50.590999603271484 C-101.1719970703125,50.590999603271484 -50.58100128173828,50.590999603271484 -50.58100128173828,50.590999603271484 C-50.58100128173828,50.590999603271484 -50.58100128173828,185.5 -50.58100128173828,185.5 C-50.58100128173828,185.5 114.00800323486328,-22.766000747680664 114.00800323486328,-22.766000747680664 C120.06199645996094,-29.8439998626709 119.23200225830078,-40.48899841308594 112.15399932861328,-46.54199981689453 C109.0989990234375,-49.154998779296875 105.20999908447266,-50.590999603271484 101.19100189208984,-50.590999603271484 C101.19100189208984,-50.590999603271484 50.599998474121094,-50.590999603271484 50.599998474121094,-50.590999603271484 C50.599998474121094,-50.590999603271484 50.599998474121094,-185.5 50.599998474121094,-185.5 C50.599998474121094,-185.5 -1.305999994277954,-119.83000183105469 -46.81999969482422,-62.24700164794922"></path></g></g></g></svg>