<svg width="144" height="235" viewBox="0 0 144 235" fill="none" xmlns="http://www.w3.org/2000/svg">
<path d="M-10.89 133.126C-19.6112 123.879 -28.3323 114.72 -36.9221 105.342C-44.0656 97.5848 -50.9464 89.5653 -57.3891 81.1954C-61.8157 75.4548 -66.0233 69.5829 -69.2234 63.054C-70.5823 60.2935 -71.7661 57.3577 -72.7308 54.3783C-74.3094 49.4709 -74.4423 44.4325 -73.3046 39.4383C-72.2982 34.9259 -69.9772 31.2026 -66.1225 28.575C-63.5381 26.7794 -60.6467 26.0793 -57.5361 26.0363C-53.2864 25.9937 -49.1679 26.6959 -45.093 27.9676C-36.8995 30.5548 -29.1876 34.0619 -21.9136 38.5328C-12.098 44.5816 -2.5452 51.0684 6.74486 57.9933C15.8596 64.7429 24.9306 71.5363 33.8702 78.5487C40.0928 83.4574 45.9651 88.8041 51.9688 93.9318C53.8532 95.5534 55.7375 97.1749 57.5781 98.7527C59.7254 100.637 61.9165 102.478 64.1076 104.406C70.0675 109.665 76.0713 114.968 81.9874 120.271C87.9035 125.662 93.4254 131.359 98.6845 137.406C103.724 143.147 108.545 149.019 112.972 155.286C117.311 161.377 121.3 167.731 124.325 174.61C125.772 177.984 126.956 181.445 127.57 185.126C128.053 187.973 128.185 190.821 127.66 193.713C126.654 199.277 123.676 203.306 118.551 205.802C115.397 207.291 112.111 208.035 108.65 208.253C103.261 208.646 97.9597 207.987 92.7457 206.715C85.7354 205.048 79.0752 202.418 72.5026 199.349C63.3885 195.14 54.9313 189.837 46.6931 184.139C36.3515 176.951 26.6668 168.93 17.3763 160.428C7.73517 151.488 -1.51173 142.241 -10.89 133.126Z" fill="#FF90E7"/>
<mask id="mask0_603_2046" style="mask-type:alpha" maskUnits="userSpaceOnUse" x="-75" y="26" width="203" height="183">
<path d="M-10.89 133.126C-19.6112 123.879 -28.3323 114.72 -36.9221 105.342C-44.0656 97.5848 -50.9464 89.5653 -57.3891 81.1954C-61.8157 75.4548 -66.0233 69.5829 -69.2234 63.054C-70.5823 60.2935 -71.7661 57.3577 -72.7308 54.3783C-74.3094 49.4709 -74.4423 44.4325 -73.3046 39.4383C-72.2982 34.9259 -69.9772 31.2026 -66.1225 28.575C-63.5381 26.7794 -60.6467 26.0793 -57.5361 26.0363C-53.2864 25.9937 -49.1679 26.6959 -45.093 27.9676C-36.8995 30.5548 -29.1876 34.0619 -21.9136 38.5328C-12.098 44.5816 -2.5452 51.0684 6.74486 57.9933C15.8596 64.7429 24.9306 71.5363 33.8702 78.5487C40.0928 83.4574 45.9651 88.8041 51.9688 93.9318C53.8532 95.5534 55.7375 97.1749 57.5781 98.7527C59.7254 100.637 61.9165 102.478 64.1076 104.406C70.0675 109.665 76.0713 114.968 81.9874 120.271C87.9035 125.662 93.4254 131.359 98.6845 137.406C103.724 143.147 108.545 149.019 112.972 155.286C117.311 161.377 121.3 167.731 124.325 174.61C125.772 177.984 126.956 181.445 127.57 185.126C128.053 187.973 128.185 190.821 127.66 193.713C126.654 199.277 123.676 203.306 118.551 205.802C115.397 207.291 112.111 208.035 108.65 208.253C103.261 208.646 97.9597 207.987 92.7457 206.715C85.7354 205.048 79.0752 202.418 72.5026 199.349C63.3885 195.14 54.9313 189.837 46.6931 184.139C36.3515 176.951 26.6668 168.93 17.3763 160.428C7.73517 151.488 -1.51173 142.241 -10.89 133.126Z" fill="black"/>
</mask>
<g mask="url(#mask0_603_2046)">
<path fill-rule="evenodd" clip-rule="evenodd" d="M-68.2977 101.674C-66.8629 101.712 -65.4375 101.759 -64.0121 101.806L-64.012 101.806C-62.5866 101.853 -61.1613 101.901 -59.7265 101.938C-47.9458 102.24 -36.165 102.996 -24.5353 105.11C-20.4431 105.843 -16.4002 106.774 -12.3669 107.702L-12.3666 107.702C-11.4132 107.921 -10.4602 108.141 -9.50728 108.357C-7.58157 108.773 -5.76915 109.452 -4.10776 110.585C-1.38913 112.473 -0.445146 115.305 -1.57792 118.401C-2.21981 120.1 -3.2393 121.573 -4.37206 122.932C-6.93966 126.029 -9.96038 128.596 -13.2076 130.862C-15.1538 132.226 -17.1266 133.538 -19.1022 134.851L-19.1034 134.852C-20.4621 135.755 -21.8222 136.66 -23.176 137.583C-24.3465 138.376 -25.4037 139.282 -26.461 140.264C-27.556 141.359 -27.4805 142.114 -26.1967 142.944C-25.4037 143.435 -24.573 143.888 -23.6668 144.115C-23.3656 144.197 -23.065 144.28 -22.7648 144.362C-20.5809 144.963 -18.4192 145.558 -16.2283 145.89C-9.39399 146.909 -2.52189 147.815 4.31246 148.608C14.75 149.805 25.2081 150.94 35.6564 152.075L35.6575 152.075C39.383 152.479 43.1072 152.883 46.8289 153.29C49.5853 153.63 52.3039 154.083 55.0603 154.574C56.4574 154.838 57.8167 155.216 59.1383 155.631C60.0445 155.933 60.9507 156.387 61.7436 156.953C64.0469 158.577 64.3867 160.804 62.8386 163.183C61.7059 164.92 60.1578 166.166 58.4964 167.299C54.613 170.042 50.3936 172.113 46.1869 174.178L46.1825 174.18C45.9322 174.303 45.6819 174.426 45.4318 174.549C45.0285 174.75 44.6262 174.951 44.2245 175.151C42.2201 176.151 40.2331 177.142 38.2199 178.211C38.1356 178.258 38.0495 178.304 37.9628 178.351C37.3505 178.68 36.7051 179.027 36.4075 179.722C36.8606 180.401 37.5402 180.628 38.1821 180.817C39.9568 181.307 41.7314 181.798 43.5439 182.025C48.9811 182.705 54.3807 183.346 59.8557 183.837C65.8023 184.347 71.7677 184.819 77.7332 185.291L77.7345 185.291L77.7364 185.291C83.7016 185.763 89.6669 186.235 95.6133 186.745C99.578 187.085 103.58 187.613 107.583 188.217C109.185 188.456 110.819 188.91 112.427 189.357L112.439 189.361C112.608 189.408 112.776 189.455 112.945 189.501C113.662 189.69 114.379 190.105 114.984 190.558C115.965 191.314 115.965 192.371 115.059 193.201C114.493 193.692 113.813 194.145 113.096 194.41C111.548 195.052 109.924 195.694 108.262 196.147C107.769 196.279 107.276 196.411 106.784 196.544C103.47 197.435 100.175 198.321 96.8216 198.979C90.9783 200.092 85.1208 201.162 79.2578 202.233L79.2576 202.233L79.2573 202.233C75.5731 202.906 71.8868 203.58 68.2004 204.265C67.5207 204.416 66.8411 204.491 66.1992 204.529C65.9605 204.529 65.7069 204.484 65.4667 204.441C65.3268 204.416 65.1915 204.392 65.0664 204.378C65.0664 204.303 65.0664 204.227 65.1042 204.114C65.1986 204.095 65.293 204.057 65.3873 204.019C65.4817 203.982 65.5761 203.944 65.6705 203.925C76.8472 202.113 87.986 199.885 99.0493 197.279C102.326 196.503 105.602 195.544 108.851 194.594L108.851 194.594C109.234 194.482 109.617 194.37 109.999 194.259C110.871 194.01 111.69 193.607 112.523 193.198L112.523 193.198C112.701 193.111 112.879 193.023 113.058 192.937C113.319 192.833 113.543 192.656 113.844 192.42C113.979 192.315 114.129 192.197 114.304 192.069C114.128 191.976 113.964 191.883 113.807 191.794L113.807 191.794C113.393 191.56 113.037 191.358 112.68 191.276C112.288 191.171 111.893 191.058 111.497 190.945L111.497 190.945C110.328 190.612 109.144 190.274 107.96 190.105C107.258 190.012 106.556 189.919 105.855 189.825L105.85 189.824C101.427 189.234 97.0237 188.646 92.5926 188.255C85.4111 187.622 78.2297 187.04 71.0409 186.456L71.0396 186.456L71.0379 186.456C65.7924 186.031 60.543 185.605 55.2869 185.159C51.8035 184.866 48.3481 184.376 44.8725 183.884L44.8712 183.884C44.3161 183.805 43.7604 183.726 43.204 183.648C41.6559 183.46 40.1078 183.044 38.5597 182.629C37.729 182.402 36.9361 182.063 36.1809 181.685C34.5573 180.817 34.4062 179.382 35.7278 178.136C36.2942 177.569 36.9738 177.116 37.6913 176.701C39.3088 175.847 40.9398 175.007 42.5603 174.172L42.5619 174.171C43.6643 173.603 44.7619 173.037 45.8472 172.472C46.3317 172.22 46.8176 171.969 47.3038 171.717L47.3043 171.717C50.4555 170.089 53.6217 168.453 56.5329 166.393C57.8922 165.411 59.2515 164.278 60.3843 163.07C62.4233 160.955 62.0835 159.256 59.3648 158.124C57.6657 157.406 55.8155 156.84 54.0031 156.538C49.8496 155.782 45.6584 155.141 41.4671 154.65C34.3684 153.819 27.2601 152.998 20.1519 152.176C13.0439 151.355 5.93596 150.534 -1.16257 149.703C-6.41105 149.061 -11.6595 148.344 -16.8702 147.513C-19.2868 147.136 -21.6279 146.532 -23.9689 145.852C-25.1394 145.512 -26.2722 144.983 -27.3294 144.304C-29.4062 142.982 -29.6705 141.132 -28.1224 139.206C-26.7703 137.577 -25.068 136.425 -23.3371 135.254C-23.1829 135.149 -23.0284 135.045 -22.8739 134.94C-22.1525 134.439 -21.4273 133.938 -20.7009 133.437C-18.1953 131.707 -15.675 129.966 -13.2454 128.181C-10.2624 125.953 -7.50605 123.423 -5.27828 120.44C-4.74966 119.761 -4.33431 119.043 -3.99449 118.25C-2.78621 115.683 -3.35258 113.455 -5.76915 111.944C-7.05295 111.114 -8.48778 110.434 -9.92262 110.057C-13.3964 109.075 -16.908 108.131 -20.4573 107.376C-31.2186 105.148 -42.2819 103.902 -53.383 103.071L-67.316 102.052C-67.4182 102.04 -67.5238 102.026 -67.6317 102.01L-67.6318 102.01C-67.883 101.975 -68.147 101.938 -68.411 101.938C-68.4009 101.908 -68.3935 101.88 -68.3866 101.855L-68.3866 101.855C-68.3678 101.785 -68.353 101.729 -68.2977 101.674ZM86.5888 163.9C86.765 163.926 86.937 163.955 87.109 163.984C87.453 164.043 87.797 164.102 88.1747 164.127L88.1762 164.127L88.1768 164.127C92.7826 164.429 97.3885 164.731 101.994 164.958C104.813 165.095 107.632 165.22 110.454 165.345C114.624 165.529 118.799 165.714 122.988 165.939C129.294 166.279 135.562 167.034 141.792 168.432C142.714 168.626 143.636 168.882 144.638 169.161L144.638 169.161C145.196 169.316 145.778 169.478 146.399 169.64C146.244 169.743 146.119 169.833 146.016 169.909L146.016 169.909C145.816 170.053 145.692 170.144 145.568 170.168C145.304 170.206 144.964 170.168 144.662 170.093C133.221 167.714 121.553 167.072 109.924 166.619C103.738 166.363 97.6227 165.965 91.441 165.562L91.4398 165.562L90.8555 165.524C89.0809 165.411 87.3063 165.147 85.5316 164.882L85.5315 164.882C84.4365 164.693 83.8702 164.278 83.9079 163.712C84.0183 162.865 84.7028 162.664 85.3318 162.48L85.3805 162.466C86.5224 162.163 87.6787 161.903 88.8406 161.642L88.8406 161.642C89.5612 161.48 90.2839 161.318 91.0066 161.144C92.7435 160.766 94.4846 160.401 96.2258 160.036C99.7079 159.306 103.19 158.576 106.639 157.746C109.622 157.028 112.567 156.047 115.437 155.065C116.341 154.746 117.227 154.257 118.108 153.772C118.477 153.569 118.845 153.366 119.212 153.177C119.245 153.155 119.278 153.134 119.309 153.113C119.494 152.991 119.655 152.885 119.817 152.724C120.685 151.855 120.685 151.176 119.741 150.458C119.099 149.967 118.382 149.552 117.627 149.326C115.437 148.646 113.209 148.004 110.943 147.551C105.101 146.411 99.1921 145.876 93.3108 145.344L92.2526 145.248C77.2246 143.813 62.1588 142.114 47.2819 139.471C37.6534 137.771 28.1004 135.77 18.7362 132.749C15.64 131.768 12.6192 130.635 9.74958 129.125C8.42802 128.407 7.14422 127.652 6.12473 126.557C4.72766 125.009 4.68989 123.461 6.27577 122.101C7.03095 121.422 7.8994 120.855 8.88113 120.478L9.39064 120.29C11.3788 119.556 13.399 118.81 15.4512 118.288C20.5164 117.073 25.6281 115.952 30.7316 114.832L30.742 114.83C32.1406 114.523 33.5385 114.216 34.9347 113.908C43.506 111.982 52.0772 109.905 60.3842 106.96C63.4049 105.903 66.3878 104.732 69.182 103.147C70.0504 102.656 70.9189 102.089 71.7118 101.447C72.1649 101.07 72.5425 100.617 72.8823 100.126C73.2222 99.635 73.1844 99.1441 72.7313 98.7665C72.624 98.6878 72.518 98.6078 72.4127 98.5282C71.9619 98.1876 71.5218 97.8551 71.0322 97.6715C69.333 97.1051 67.6339 96.5387 65.8592 96.1989C61.7057 95.2927 57.4767 94.9906 53.2855 94.7263C44.5183 94.1277 35.6855 93.9888 26.8789 93.8504L26.8784 93.8503C26.2409 93.8403 25.6036 93.8303 24.9664 93.8201C23.4084 93.7959 21.8505 93.7757 20.2927 93.7554C12.1097 93.6488 3.93091 93.5423 -4.22118 92.8761C-7.01534 92.6496 -9.84725 92.3098 -12.6414 91.9322C-14.0762 91.7056 -15.5111 91.328 -16.8704 90.9504C-17.5123 90.7616 -18.1542 90.4218 -18.6828 90.0442C-19.8911 89.2135 -20.0421 88.0808 -19.0226 86.9858C-18.4563 86.3439 -17.7388 85.853 -17.0214 85.4376C-14.8368 84.2006 -12.6338 83.0185 -10.438 81.8403L-10.435 81.8388C-9.48188 81.3273 -8.53007 80.8166 -7.58173 80.3024C-4.44774 78.6033 -1.38928 76.8286 1.44264 74.6764C4.72766 72.2221 7.29526 69.0503 9.63631 65.7275C12.2417 62.0649 14.3562 58.138 15.6777 53.7958C16.5462 51.0394 16.9993 48.1697 16.7727 45.2245C16.4329 40.9577 14.3939 37.7105 11.0711 35.2184C10.3235 34.652 9.53507 34.1264 8.74665 33.6008C8.22107 33.2504 7.69549 32.9 7.18199 32.5375C7.18199 32.462 7.19143 32.3959 7.20088 32.3298L7.20092 32.3295C7.21034 32.2636 7.21976 32.1976 7.21975 32.1222C7.28902 32.1568 7.35035 32.1994 7.40737 32.239C7.47468 32.2857 7.53601 32.3283 7.59733 32.3487C8.18038 32.6986 8.77233 33.0306 9.36248 33.3617C10.4922 33.9953 11.6153 34.6254 12.657 35.3694C17.037 38.4657 18.6607 42.8834 18.4719 48.0564C18.3586 52.0211 17.2258 55.797 15.5267 59.3841C12.808 65.1989 9.18319 70.4096 4.42559 74.7897C2.16006 76.9042 -0.445294 78.5278 -3.16393 79.9626C-4.99526 80.9255 -6.83602 81.86 -8.67679 82.7946L-8.67703 82.7947L-8.67952 82.796C-10.5193 83.73 -12.3591 84.6641 -14.1895 85.6264C-15.2467 86.1551 -16.1907 86.7214 -17.1725 87.3256C-17.4032 87.464 -17.6057 87.6588 -17.8489 87.8928C-18.0037 88.0417 -18.1751 88.2066 -18.3807 88.3828C-18.1965 88.4852 -18.0261 88.5848 -17.8643 88.6793C-17.4294 88.9336 -17.0567 89.1514 -16.6438 89.2891C-16.2876 89.3757 -15.9289 89.4697 -15.5684 89.5642C-14.515 89.8403 -13.4461 90.1205 -12.3771 90.233C-12.0243 90.2705 -11.6712 90.3084 -11.3177 90.3464L-11.3069 90.3475L-11.3067 90.3476C-8.10733 90.691 -4.88046 91.0373 -1.65358 91.1392C4.46309 91.328 10.5892 91.4696 16.7153 91.6112C22.8419 91.7528 28.9686 91.8944 35.0858 92.0832C43.1284 92.3475 51.1332 92.7251 59.1381 93.1782C61.081 93.2925 63.0455 93.6014 64.9989 93.9085L64.9991 93.9085L64.9999 93.9086C65.6277 94.0074 66.2543 94.1059 66.8787 94.1977C68.238 94.4242 69.5596 94.8396 70.8056 95.2549C71.5985 95.5192 72.4292 95.8968 73.1089 96.3499C75.4499 97.8603 75.6765 99.8993 73.8263 101.9C72.6935 103.109 71.372 103.977 69.8994 104.77C66.6899 106.545 63.2538 107.866 59.78 109.075C51.8884 111.756 43.808 113.719 35.6521 115.456C33.8821 115.839 32.1093 116.219 30.3352 116.599L30.3337 116.6C25.6365 117.607 20.9304 118.616 16.2441 119.685C14.0163 120.176 11.8263 120.931 9.63631 121.686C8.80561 121.988 7.97492 122.441 7.2575 122.932C6.16249 123.725 6.04922 124.594 6.99318 125.462C7.74836 126.217 8.61681 126.859 9.52303 127.388C12.0529 128.86 14.7715 129.842 17.5279 130.786C25.1929 133.316 33.0845 135.015 41.0139 136.525C56.2307 139.433 71.6363 141.321 87.0796 142.793C93.4231 143.397 99.8044 144.039 106.186 144.832C109.131 145.21 112.076 145.814 114.983 146.456C116.122 146.684 117.205 147.136 118.304 147.595C118.481 147.668 118.657 147.742 118.835 147.815C119.477 148.08 120.043 148.419 120.572 148.872C122.535 150.383 122.648 152.46 120.685 154.045C119.779 154.801 118.722 155.48 117.664 155.933C115.588 156.802 113.435 157.595 111.283 158.237C106.796 159.62 102.188 160.521 97.5675 161.424L97.5608 161.426C97.0124 161.533 96.4638 161.64 95.9152 161.748C94.5183 162.012 93.1404 162.277 91.7624 162.541C90.384 162.805 89.0056 163.07 87.6083 163.334C87.2307 163.41 86.8153 163.523 86.4 163.636C86.5888 163.749 86.5888 163.825 86.5888 163.9ZM-98.4084 64.4796C-99.2755 64.5088 -100.145 64.5382 -101.017 64.5589C-101.054 64.6722 -101.017 64.7855 -100.903 64.8988C-100.564 64.9365 -100.186 64.9365 -99.8087 64.9365H-99.8084C-99.4508 64.9365 -99.091 64.9342 -98.7299 64.9318C-97.642 64.9247 -96.5434 64.9176 -95.4661 64.9743C-84.5538 65.3896 -73.7548 66.5979 -62.9935 68.146C-55.2907 69.2033 -47.6257 70.5248 -40.0739 72.3372C-38.6391 72.7148 -37.1665 73.1302 -35.8072 73.6588C-34.9765 73.9609 -34.1458 74.4895 -33.3906 75.0181C-32.3334 75.8488 -32.1823 76.755 -32.8242 77.85C-33.1263 78.3787 -33.4661 78.8695 -33.8815 79.2849C-35.3918 80.9463 -37.242 82.1923 -39.1677 83.2873C-42.9814 85.5151 -47.0216 87.1387 -51.1373 88.7623C-51.6281 88.9511 -52.119 89.1399 -52.5344 89.4042C-52.7231 89.5175 -52.8364 89.8573 -52.7987 90.0461C-52.7609 90.2349 -52.4211 90.4992 -52.27 90.4992C-51.7414 90.4992 -51.2128 90.4237 -50.7597 90.2727C-45.3979 88.4603 -40.1872 86.1947 -35.4674 82.9852C-33.8437 81.8902 -32.2956 80.7197 -31.2384 78.9828C-29.9168 76.8305 -30.3322 74.6783 -32.3711 73.2435C-33.3151 72.6016 -34.4101 72.0352 -35.5429 71.6576C-37.1665 71.0912 -38.7901 70.6759 -40.4893 70.336C-57.3675 66.9 -74.3589 64.7855 -91.577 64.4079C-93.8493 64.3258 -96.1216 64.4024 -98.4084 64.4796Z" fill="black"/>
</g>
</svg>
