<svg width="178" height="143" viewBox="0 0 178 143" fill="none" xmlns="http://www.w3.org/2000/svg">
<path d="M32.6225 142.118C27.6105 142.303 22.1653 141.439 16.9677 139.339C7.3149 135.386 2.11724 127.912 0.19906 117.906C-0.172201 115.806 0.013429 113.644 0.446567 111.544C1.12721 108.456 2.11724 105.553 3.72604 102.835C6.20111 98.6348 9.04745 94.6818 12.6363 91.4082C15.7301 88.5669 18.9477 85.8492 22.2891 83.3168C27.7342 79.2402 33.365 75.349 38.8721 71.3342C41.3472 69.543 43.8841 67.8135 46.7304 66.5782C47.0398 66.4547 47.3492 66.2694 47.6586 66.0841C62.3853 57.1898 77.112 48.2955 91.8386 39.3394C101.615 33.4099 111.33 27.3568 120.983 21.3655C130.45 15.4977 140.164 10.1241 150.56 5.98579C156.438 3.63868 162.502 1.72393 168.752 0.612146C174.815 -0.437876 180.756 -0.129046 186.696 1.47687C197.524 4.37987 204.888 11.1124 208.786 21.6126C212.622 31.9893 211.075 41.8101 205.445 51.1367C203.341 54.5956 200.556 57.6222 197.586 60.3399C193.75 63.8605 189.542 66.9488 185.335 69.9136C172.959 78.5608 160.089 86.4051 146.785 93.57C132.306 101.352 117.951 109.32 103.533 117.165C95.675 121.426 87.8785 125.812 79.587 129.332C73.7706 131.803 67.8923 134.088 62.014 136.559C52.8562 140.45 43.1416 141.933 32.6225 142.118Z" fill="black"/>
<mask id="mask0_2_1729" style="mask-type:alpha" maskUnits="userSpaceOnUse" x="0" y="0" width="211" height="143">
<path d="M32.6225 142.118C27.6105 142.303 22.1653 141.439 16.9677 139.339C7.3149 135.386 2.11724 127.912 0.19906 117.906C-0.172201 115.806 0.013429 113.644 0.446567 111.544C1.12721 108.456 2.11724 105.553 3.72604 102.835C6.20111 98.6348 9.04745 94.6818 12.6363 91.4082C15.7301 88.5669 18.9477 85.8492 22.2891 83.3168C27.7342 79.2402 33.365 75.349 38.8721 71.3342C41.3472 69.543 43.8841 67.8135 46.7304 66.5782C47.0398 66.4547 47.3492 66.2694 47.6586 66.0841C62.3853 57.1898 77.112 48.2955 91.8386 39.3394C101.615 33.4099 111.33 27.3568 120.983 21.3655C130.45 15.4977 140.164 10.1241 150.56 5.98579C156.438 3.63868 162.502 1.72393 168.752 0.612146C174.815 -0.437876 180.756 -0.129046 186.696 1.47687C197.524 4.37987 204.888 11.1124 208.786 21.6126C212.622 31.9893 211.075 41.8101 205.445 51.1367C203.341 54.5956 200.556 57.6222 197.586 60.3399C193.75 63.8605 189.542 66.9488 185.335 69.9136C172.959 78.5608 160.089 86.4051 146.785 93.57C132.306 101.352 117.951 109.32 103.533 117.165C95.675 121.426 87.8785 125.812 79.587 129.332C73.7706 131.803 67.8923 134.088 62.014 136.559C52.8562 140.45 43.1416 141.933 32.6225 142.118Z" fill="black"/>
</mask>
<g mask="url(#mask0_2_1729)">
<path d="M-22.9863 120.026C-22.7281 105.945 -18.9192 94.2004 -10.9785 83.8832C-5.62012 76.9401 0.383804 70.5811 7.16243 65.0007C21.1716 53.3208 35.3744 41.9654 50.0292 31.129C54.742 27.6251 59.5838 24.3807 64.3612 21.0714C66.0397 19.9683 67.7827 18.9949 69.5904 18.0865C70.6233 17.5674 71.7208 17.3078 72.8183 17.1781C74.7551 16.9185 76.4981 17.5025 77.9184 18.93C78.6286 19.6438 79.2096 20.4225 79.7261 21.266C80.9527 23.1478 82.0501 25.0295 83.2122 26.9762C90.8946 39.5645 98.5771 52.1528 106.195 64.806C110.456 71.8788 114.588 79.0814 118.978 86.1543C124.078 94.3951 129.501 102.441 135.375 110.163C135.569 110.422 135.763 110.682 135.956 110.942C137.377 113.018 137.377 114.77 135.892 116.846C135.375 117.625 134.73 118.339 134.149 118.988C127.37 126.774 119.688 133.458 110.843 138.844C99.5455 145.722 88.1832 152.47 76.2399 158.245C64.1029 164.15 51.4495 168.497 38.1505 170.963C31.2427 172.261 24.335 172.65 17.3627 171.158C16.0715 170.898 14.8449 170.639 13.6183 170.12C-6.07203 162.528 -18.6609 148.901 -22.2762 127.553C-22.7281 124.763 -22.7927 121.843 -22.9863 120.026Z" fill="#27DAB7"/>
<mask id="mask1_2_1729" style="mask-type:alpha" maskUnits="userSpaceOnUse" x="-23" y="17" width="161" height="156">
<path d="M-22.9863 120.026C-22.7281 105.945 -18.9192 94.2004 -10.9785 83.8832C-5.62012 76.9401 0.383804 70.5811 7.16243 65.0007C21.1716 53.3208 35.3744 41.9654 50.0292 31.129C54.742 27.6251 59.5838 24.3807 64.3612 21.0714C66.0397 19.9683 67.7827 18.9949 69.5904 18.0865C70.6233 17.5674 71.7208 17.3078 72.8183 17.1781C74.7551 16.9185 76.4981 17.5025 77.9184 18.93C78.6286 19.6438 79.2096 20.4225 79.7261 21.266C80.9527 23.1478 82.0501 25.0295 83.2122 26.9762C90.8946 39.5645 98.5771 52.1528 106.195 64.806C110.456 71.8788 114.588 79.0814 118.978 86.1543C124.078 94.3951 129.501 102.441 135.375 110.163C135.569 110.422 135.763 110.682 135.956 110.942C137.377 113.018 137.377 114.77 135.892 116.846C135.375 117.625 134.73 118.339 134.149 118.988C127.37 126.774 119.688 133.458 110.843 138.844C99.5455 145.722 88.1832 152.47 76.2399 158.245C64.1029 164.15 51.4495 168.497 38.1505 170.963C31.2427 172.261 24.335 172.65 17.3627 171.158C16.0715 170.898 14.8449 170.639 13.6183 170.12C-6.07203 162.528 -18.6609 148.901 -22.2762 127.553C-22.7281 124.763 -22.7927 121.843 -22.9863 120.026Z" fill="#EA552B"/>
</mask>
<g mask="url(#mask1_2_1729)">
</g>
<g clip-path="url(#clip0_2_1729)">
<path d="M88.2658 127.324C88.6178 126.043 88.3245 125.112 88.0312 124.181C87.1512 121.561 86.2713 119 85.274 116.438C82.3996 109.162 79.4079 101.944 76.6508 94.6088C73.307 85.5277 70.9606 76.2138 69.7287 66.6088C69.2007 62.3593 68.7314 58.1099 69.3767 53.8022C69.6114 52.114 69.9633 50.3677 70.6086 48.7959C71.8992 45.6525 74.2456 45.245 76.5921 47.6899C77.7653 48.9124 78.8213 50.3094 79.7598 51.7647C81.8717 55.2575 83.9835 58.8084 85.978 62.4176C92.5481 74.2346 100.174 85.2949 109.384 95.3074C114.077 100.43 118.711 105.611 123.463 110.734C126.865 114.343 130.385 117.777 133.905 121.27C134.902 122.26 136.016 123.191 136.955 124.297C136.486 124.006 136.016 123.715 135.665 123.366C132.849 120.862 129.916 118.418 127.217 115.798C117.538 106.426 108.387 96.5298 99.7635 86.2263C94.8359 80.2887 90.6709 73.8271 86.8579 67.0745C84.6288 63.1161 82.3996 59.0995 80.1118 55.141C79.1732 53.5111 78.1173 51.9976 77.0614 50.4259C76.5921 49.7855 76.0641 49.2034 75.5362 48.6213C73.9523 47.1078 72.9551 47.2824 72.0165 49.3198C71.7232 49.9602 71.4885 50.6005 71.3125 51.299C70.4913 54.4425 70.4326 57.6442 70.6673 60.8458C71.6645 74.6421 75.4189 87.7398 80.5224 100.546C82.8103 106.309 85.274 112.014 87.5619 117.777C88.5004 120.106 89.0871 122.551 89.791 124.996C89.967 125.636 89.967 126.393 89.9083 127.091C89.7323 128.314 88.7938 128.896 87.6792 128.43C86.7406 128.023 85.802 127.499 85.0981 126.8C83.1622 124.996 81.2264 123.133 79.4665 121.154C73.7177 114.517 69.0834 107.124 65.0357 99.3822C61.34 92.3968 57.879 85.2367 54.242 78.193C52.5408 74.9331 50.7223 71.7315 48.8451 68.588C48.0825 67.3074 47.0852 66.1431 46.088 65.0953C44.6214 63.5818 43.6242 63.8729 42.9789 65.8521C42.099 68.4716 42.1576 71.1494 42.3336 73.8853C43.0962 83.6067 45.7947 92.8043 49.0797 101.885C51.5435 108.696 54.242 115.449 56.7058 122.318C58.3483 126.917 59.9322 131.573 60.8708 136.347C61.1054 137.453 61.1641 138.675 61.0467 139.84C60.8707 141.819 59.5215 142.75 57.6444 142.226C56.5298 141.935 55.4739 141.411 54.4766 140.771C52.0715 139.316 49.9597 137.395 47.9652 135.474C41.9817 129.536 37.0541 122.842 32.6544 115.682C28.9587 109.686 25.8497 103.341 22.7406 97.0537C21.5087 94.5506 20.2181 92.0475 18.8103 89.6608C18.165 88.5548 17.4024 87.4487 16.5224 86.4591C14.8799 84.6546 13.472 84.8292 12.4161 87.0413C11.8882 88.1473 11.4775 89.3697 11.1842 90.5922C10.363 94.0849 10.187 97.6941 10.2456 101.303C10.363 111.257 12.8854 120.746 16.6984 129.885C18.6343 134.542 20.8634 139.141 22.9166 143.798C24.3245 146.883 25.6737 150.027 26.2603 153.403C26.4363 154.334 26.4363 155.266 26.3776 156.197C26.319 156.954 25.967 157.652 25.2044 158.002C24.5591 158.351 24.2658 158.235 23.8552 157.478C24.2658 157.361 24.7938 157.361 25.0284 157.129C25.3217 156.721 25.5564 156.081 25.5564 155.615C25.439 154.276 25.263 152.937 24.8524 151.657C24.0312 149.212 23.0339 146.767 22.0367 144.38C19.6315 138.85 17.0504 133.436 14.8213 127.848C12.2988 121.619 10.4803 115.158 9.71768 108.463C8.95508 102.176 8.89641 95.9477 10.4216 89.719C10.6563 88.6712 11.0669 87.6816 11.5362 86.692C13.0027 83.7232 15.2905 83.3739 17.5197 85.8188C18.2823 86.6338 18.9276 87.5652 19.5142 88.4966C20.8634 90.825 22.154 93.2117 23.4445 95.5984C26.319 101.07 29.0174 106.601 32.0092 111.956C35.9982 119.116 40.7498 125.869 46.264 131.981C48.5518 134.542 50.8983 136.987 53.7727 138.908C54.8872 139.723 56.1778 140.422 57.4684 140.887C59.1109 141.528 59.9322 140.946 59.8735 139.199C59.8735 137.86 59.6389 136.522 59.2869 135.183C57.8203 129.187 55.8258 123.424 53.714 117.603C50.9569 110.734 48.3171 103.865 45.912 96.9373C43.8588 90.9415 42.275 84.8292 41.395 78.5423C40.9257 75.3406 40.5738 72.0808 40.9257 68.8209C41.1017 67.4238 41.3364 66.0267 41.8057 64.746C42.6856 62.4176 44.5628 62.0101 46.4986 63.64C47.4372 64.455 48.3171 65.4446 48.9624 66.4924C50.6049 69.0537 52.2475 71.6151 53.5967 74.2928C57.0577 80.9872 60.3428 87.6816 63.6865 94.4342C67.3235 101.652 71.2539 108.696 76.0055 115.216C78.2346 118.301 80.5811 121.27 83.3382 123.89C84.3355 124.879 85.45 125.752 86.5646 126.567C87.0339 126.8 87.6205 126.975 88.2658 127.324Z" fill="black"/>
</g>
</g>
<defs>
<clipPath id="clip0_2_1729">
<rect width="128" height="112" fill="white" transform="translate(9.01367 46.1182)"/>
</clipPath>
</defs>
</svg>
