<svg width="144" height="210" viewBox="0 0 144 210" fill="none" xmlns="http://www.w3.org/2000/svg">
<path d="M-60 103.798C-59.3 74.9982 -48.7 48.9982 -26.4 28.0982C-17.7 19.9982 -7.7 13.5982 2.8 8.09817C12.9 2.89817 23.8 0.49817 35.1 0.09817C52.8 -0.60183 69.7 2.39817 85.5 10.4982C115.2 25.6982 133.7 49.9982 141 82.3982C149.1 118.098 137.7 155.798 111.4 181.198C94.9 197.098 75.2 206.398 52.4 208.998C13.9 213.398 -23.6 194.698 -44.3 161.098C-54.7 143.998 -59.8 125.298 -60 103.798Z" fill="#FFC900"/>
<mask id="mask0_2_1722" style="mask-type:alpha" maskUnits="userSpaceOnUse" x="-60" y="0" width="204" height="210">
<path d="M-60 103.798C-59.3 74.9982 -48.7 48.9982 -26.4 28.0982C-17.7 19.9982 -7.7 13.5982 2.8 8.09817C12.9 2.89817 23.8 0.49817 35.1 0.09817C52.8 -0.60183 69.7 2.39817 85.5 10.4982C115.2 25.6982 133.7 49.9982 141 82.3982C149.1 118.098 137.7 155.798 111.4 181.198C94.9 197.098 75.2 206.398 52.4 208.998C13.9 213.398 -23.6 194.698 -44.3 161.098C-54.7 143.998 -59.8 125.298 -60 103.798Z" fill="black"/>
</mask>
<g mask="url(#mask0_2_1722)">
<path d="M-50.3189 178.45C-51.0189 178.85 -51.6189 179.25 -52.3189 179.65C-55.3189 181.55 -58.2189 183.45 -61.2189 185.35C-62.0189 185.85 -62.9189 186.35 -63.8189 186.55C-64.4189 186.65 -65.3189 186.35 -65.7189 185.95C-66.0189 185.45 -66.1189 184.45 -65.8189 183.95C-65.3189 183.05 -64.5189 182.35 -63.7189 181.75C-59.5189 178.55 -55.3189 175.35 -51.0189 172.35C-32.0189 159.05 -12.6189 146.35 7.38114 134.55C31.0811 120.65 54.8811 106.75 78.7811 93.2496C103.581 79.1496 129.481 67.0496 155.681 55.7496C161.581 53.1496 167.481 50.4496 173.381 47.8496C174.581 47.3496 175.681 46.7496 176.981 46.4496C180.781 45.2496 183.681 46.4496 185.381 49.9496C186.281 51.9496 186.981 54.1496 187.381 56.3496C189.481 66.6496 189.881 76.9496 189.381 87.3496C188.081 114.25 179.081 138.45 164.081 160.55C148.381 183.55 127.781 201.15 103.481 214.45C84.2811 224.95 63.8811 232.05 42.2811 235.25C29.7811 237.15 17.2811 237.65 4.78114 235.45C-5.61887 233.65 -15.3189 230.15 -24.2189 224.55C-35.6189 217.45 -43.7189 207.35 -49.6189 195.55C-51.9189 190.95 -52.2189 186.25 -50.8189 181.35C-50.6189 180.65 -50.4189 179.95 -50.3189 179.25C-50.1189 178.75 -50.2189 178.65 -50.3189 178.45Z" fill="#27DAB7"/>
<mask id="mask1_2_1722" style="mask-type:alpha" maskUnits="userSpaceOnUse" x="-66" y="45" width="256" height="192">
<path d="M-50.3189 178.45C-51.0189 178.85 -51.6189 179.25 -52.3189 179.65C-55.3189 181.55 -58.2189 183.45 -61.2189 185.35C-62.0189 185.85 -62.9189 186.35 -63.8189 186.55C-64.4189 186.65 -65.3189 186.35 -65.7189 185.95C-66.0189 185.45 -66.1189 184.45 -65.8189 183.95C-65.3189 183.05 -64.5189 182.35 -63.7189 181.75C-59.5189 178.55 -55.3189 175.35 -51.0189 172.35C-32.0189 159.05 -12.6189 146.35 7.38114 134.55C31.0811 120.65 54.8811 106.75 78.7811 93.2496C103.581 79.1496 129.481 67.0496 155.681 55.7496C161.581 53.1496 167.481 50.4496 173.381 47.8496C174.581 47.3496 175.681 46.7496 176.981 46.4496C180.781 45.2496 183.681 46.4496 185.381 49.9496C186.281 51.9496 186.981 54.1496 187.381 56.3496C189.481 66.6496 189.881 76.9496 189.381 87.3496C188.081 114.25 179.081 138.45 164.081 160.55C148.381 183.55 127.781 201.15 103.481 214.45C84.2811 224.95 63.8811 232.05 42.2811 235.25C29.7811 237.15 17.2811 237.65 4.78114 235.45C-5.61887 233.65 -15.3189 230.15 -24.2189 224.55C-35.6189 217.45 -43.7189 207.35 -49.6189 195.55C-51.9189 190.95 -52.2189 186.25 -50.8189 181.35C-50.6189 180.65 -50.4189 179.95 -50.3189 179.25C-50.1189 178.75 -50.2189 178.65 -50.3189 178.45Z" fill="#4CA96D"/>
</mask>
<g mask="url(#mask1_2_1722)">
<path d="M141.2 195.098C141.5 194.098 141.8 192.998 142 191.998C142.8 186.598 142.2 181.298 141.7 175.998C140.4 162.698 137.3 149.698 134.5 136.598C132.4 126.998 130.3 117.398 129.8 107.498C129.5 100.598 129.4 93.598 129.6 86.598C129.9 74.598 131.1 62.698 133.3 50.798C134.6 43.998 136.1 37.198 138.6 30.598C140 26.798 141.8 23.098 144.4 19.898C145.9 17.998 147.7 16.498 150.1 14.998C149.9 15.498 149.9 15.798 149.7 15.898C145 19.698 142.4 24.898 140.6 30.498C138.3 37.298 136.9 44.198 135.9 51.298C133.2 69.098 132.2 86.898 133 104.898C133.4 113.098 134.9 121.098 136.6 129.098C139 140.698 141.5 152.198 143.7 163.898C145.1 171.398 146 178.898 145.9 186.498C145.9 188.498 145.7 190.498 145.4 192.498C145.2 193.698 144.8 194.998 144.2 196.098C143 198.398 140.6 198.898 138.8 197.098C137.4 195.798 136.2 194.198 135.4 192.498C133.5 188.498 131.7 184.398 130 180.198C125.3 168.098 121.7 155.698 118.1 143.198C112.7 124.798 106.6 106.598 99.7998 88.698C98.4998 85.298 96.9998 82.098 95.3998 78.798C94.7998 77.598 93.9998 76.398 93.1998 75.398C91.7998 73.798 90.5998 73.798 89.1998 75.398C88.2998 76.498 87.4998 77.798 86.9998 79.098C85.2998 82.798 84.4998 86.898 84.0998 90.898C82.9998 100.898 83.2998 110.898 83.7998 120.898C84.6998 138.298 87.0998 155.598 89.1998 172.898C90.4998 183.498 91.6998 193.998 91.8998 204.698C91.9998 212.298 91.8998 219.898 90.2998 227.398C89.8998 229.198 89.3998 230.998 88.6998 232.698C86.5998 237.598 82.5998 238.298 78.9998 234.198C77.3998 232.398 76.1998 230.298 74.9998 228.198C72.4998 223.598 70.6998 218.598 69.1998 213.498C65.5998 201.498 62.8998 189.398 60.5998 177.098C56.9998 157.698 53.4998 138.298 50.0998 118.798C48.7998 111.398 47.7998 103.998 46.5998 96.498C46.2998 94.898 45.8998 93.198 45.2998 91.598C44.9998 90.698 44.2998 89.798 43.8998 88.998C42.2998 89.198 41.3998 90.198 40.7998 91.198C39.4998 93.398 38.0998 95.498 36.9998 97.798C33.4998 105.298 31.9998 113.298 31.1998 121.398C29.7998 135.998 30.5998 150.498 32.0998 164.998C33.2998 176.198 34.5998 187.398 35.2998 198.698C35.9998 208.998 35.9998 219.298 33.6998 229.498C33.1998 231.498 32.4998 233.498 31.6998 235.398C31.0998 236.798 30.1998 237.998 29.0998 239.098C26.8998 241.298 24.0998 241.498 21.7998 239.298C20.2998 237.798 18.7998 236.098 17.8998 234.198C15.8998 229.998 13.9998 225.598 12.3998 221.198C8.29981 209.498 5.69981 197.298 3.2998 185.198C0.699806 171.798 -1.2002 158.398 -1.90019 144.798C-2.50019 134.098 -2.4002 123.398 -2.7002 112.698C-2.7002 111.098 -2.90019 109.398 -3.10019 107.298C-4.60019 108.498 -5.30019 109.798 -6.00019 110.998C-9.10019 116.698 -11.6002 122.698 -13.7002 128.798C-19.5002 145.798 -22.8002 163.198 -22.9002 181.198C-23.0002 190.298 -23.1002 199.398 -23.4002 208.598C-23.6002 215.698 -24.3002 222.798 -26.7002 229.598C-27.3002 231.398 -28.2002 233.098 -29.1002 234.798C-29.5002 235.498 -30.2002 236.198 -30.9002 236.698C-32.1002 237.498 -32.8002 236.998 -33.2002 235.198C-33.0002 235.298 -32.7002 235.298 -32.6002 235.398C-32.4002 235.498 -32.3002 235.698 -32.0002 235.898C-30.7002 234.998 -30.2002 233.698 -29.6002 232.398C-28.0002 228.698 -27.1002 224.798 -26.7002 220.798C-26.2002 215.598 -25.8002 210.298 -25.7002 204.998C-25.5002 194.998 -25.6002 184.998 -25.3002 174.998C-24.9002 160.798 -22.1002 146.898 -17.8002 133.298C-15.4002 125.698 -12.5002 118.398 -8.80019 111.398C-7.80019 109.598 -6.70019 107.798 -5.40019 106.198C-4.70019 105.298 -3.80019 104.598 -2.50019 104.998C-1.30019 105.398 -0.900192 106.398 -0.800194 107.498C-0.500195 110.698 -0.300194 113.898 -0.200195 117.098C0.0998039 125.198 -0.00019455 133.298 0.499805 141.298C2.0998 167.698 6.49981 193.698 14.2998 218.998C15.6998 223.598 17.5998 227.998 19.5998 232.398C20.3998 234.198 21.5998 235.798 22.9998 237.298C24.4998 238.998 26.0998 238.898 27.4998 237.198C28.4998 235.898 29.5998 234.398 29.9998 232.898C30.9998 229.198 31.8998 225.498 32.3998 221.698C33.2998 214.198 33.3998 206.698 32.6998 199.198C31.4998 186.398 30.0998 173.598 28.8998 160.798C27.5998 146.998 27.1998 133.198 28.7998 119.398C29.6998 111.498 31.4998 103.798 34.8998 96.598C35.7998 94.698 36.7998 92.898 37.8998 91.198C38.4998 90.198 39.2998 89.1981 40.1998 88.398C42.6998 86.098 45.2998 86.398 46.7998 89.498C47.6998 91.398 48.3998 93.498 48.7998 95.598C50.1998 103.598 51.3998 111.498 52.6998 119.498C57.2998 147.598 61.6998 175.698 68.5998 203.398C70.1998 209.698 72.1998 215.998 74.3998 222.198C75.4998 225.298 77.2998 228.198 78.9998 231.098C79.6998 232.198 80.6998 233.198 81.7998 233.998C83.2998 235.198 84.3998 234.898 85.3998 233.298C85.9998 232.198 86.5998 230.998 86.7998 229.798C87.4998 225.098 88.2998 220.498 88.5998 215.798C89.1998 205.098 88.1998 194.498 86.9998 183.998C85.0998 166.898 82.8998 149.898 81.1998 132.798C79.8998 120.098 79.4998 107.398 80.4998 94.698C80.8998 89.298 81.6998 83.998 83.8998 79.098C84.6998 77.298 85.6998 75.498 86.9998 73.998C89.4998 70.998 92.6998 71.098 95.1998 73.998C96.4998 75.498 97.5998 77.198 98.3998 79.098C101.2 85.698 104 92.398 106.5 99.098C112.4 114.798 116.7 131.098 121.4 147.198C125.2 159.998 129.2 172.698 134.4 185.098C135.5 187.698 136.7 190.198 138.1 192.598C138.7 193.698 139.7 194.698 140.5 195.698C140.7 195.198 141 195.098 141.2 195.098Z" fill="black"/>
</g>
</g>
</svg>
