<svg width="143" height="188" viewBox="0 0 143 188" fill="none" xmlns="http://www.w3.org/2000/svg">
<path d="M50.4004 145.2C50.0004 146 49.7004 146.9 49.2004 147.7C48.3004 149.4 47.1004 150.7 45.1004 151.2C41.6004 152.1 38.2004 149.5 38.2004 145.6C38.2004 142.4 38.5004 139.2 38.9004 136C42.5004 110.6 54.4004 89.8998 73.9004 73.4998C79.2004 68.9998 83.9004 64.1998 88.1004 58.6998C94.2004 50.6998 100.5 42.8998 107.7 35.7998C111.8 31.6998 116.2 28.0998 121.1 24.9998C124.1 23.0998 127.3 21.6998 130.9 21.1998C136.9 20.3998 141.6 23.5998 142.5 29.5998C143.4 35.8998 142.1 41.6998 138.2 46.7998C135.2 50.6998 131.6 53.7998 127.3 55.9998C124.3 57.4998 121.3 58.9998 118.2 60.3998C96.6004 70.3998 81.0004 86.3998 71.4004 108.1C67.5004 116.9 65.2004 126.2 63.6004 135.7C62.3004 143.7 61.1004 151.7 59.8004 159.6C59.5004 161.4 59.0004 163.2 58.5004 165C56.0004 173.9 49.8004 179.2 41.5004 182.1C37.7004 183.5 33.6004 184 29.6004 184.6C28.1004 184.9 26.4004 184.7 24.8004 184.5C22.4004 184.1 21.0004 182.5 20.9004 180.6C20.9004 178.7 22.2004 177.2 24.6004 176.5C28.4004 175.4 32.3004 174.3 36.1004 173.2C39.2004 172.3 41.7004 170.6 43.9004 168.3C46.1004 166.1 47.6004 163.5 48.2004 160.4C49.0004 155.9 49.8004 151.4 50.5004 146.9C50.6004 146.4 50.5004 145.9 50.5004 145.4C50.6004 145.3 50.5004 145.3 50.4004 145.2ZM107.4 52.7998C107.8 52.7998 107.9 52.8998 108.1 52.8998C113 50.4998 117.9 48.1998 122.8 45.7998C125.6 44.3998 127.9 42.1998 129.8 39.6998C131.3 37.5998 131.9 35.1998 131.7 32.4998C125.7 33.8998 113 44.6998 107.4 52.7998Z" fill="#FF90E7"/>
<path d="M0 152.658C0.9 142.658 1.3 132.958 3.1 123.358C4.6 115.758 5.6 108.058 6.9 100.458C7.5 96.8577 8.4 93.2576 9.3 89.6576C9.7 88.1576 10.4 86.6576 10.8 85.0576C14.2 72.8577 19.8 61.6576 27 51.2576C28.7 48.7576 30.4 46.2576 32.3 43.8576C44.9 28.4576 60.3 16.7576 78.2 8.25765C84.1 5.55765 90 2.85765 96.3 1.55765C103.4 0.0576456 110.5 -0.642354 117.7 0.757646C123.3 1.85765 128.4 4.15765 132.8 7.65765C136.4 10.5576 139.2 14.1576 141 18.4576C146 30.4576 139.2 43.8576 129.4 47.7576C122.6 50.4576 115.8 53.2576 108.9 56.0576C93.3 62.4576 80.3 72.3577 70 85.5576C64.3 92.8577 60.6 101.158 57.3 109.658C53.1 120.158 51.2 130.958 51.7 142.258C52 148.258 52.1 154.258 52.3 160.258C52.5 165.258 51.4 169.958 49.3 174.458C47.4 178.558 44.4 181.558 40.4 183.458C32.8 187.058 24.9 188.158 16.6 186.158C11.3 184.858 7.4 181.858 4.9 176.958C2.8 172.958 1.3 168.758 0.9 164.258C0.6 160.158 0.3 156.258 0 152.658Z" fill="black"/>
<mask id="mask0_2_1154" style="mask-type:alpha" maskUnits="userSpaceOnUse" x="0" y="0" width="143" height="188">
<path d="M0 152.658C0.9 142.658 1.3 132.958 3.1 123.358C4.6 115.758 5.6 108.058 6.9 100.458C7.5 96.8577 8.4 93.2576 9.3 89.6576C9.7 88.1576 10.4 86.6576 10.8 85.0576C14.2 72.8577 19.8 61.6576 27 51.2576C28.7 48.7576 30.4 46.2576 32.3 43.8576C44.9 28.4576 60.3 16.7576 78.2 8.25765C84.1 5.55765 90 2.85765 96.3 1.55765C103.4 0.0576456 110.5 -0.642354 117.7 0.757646C123.3 1.85765 128.4 4.15765 132.8 7.65765C136.4 10.5576 139.2 14.1576 141 18.4576C146 30.4576 139.2 43.8576 129.4 47.7576C122.6 50.4576 115.8 53.2576 108.9 56.0576C93.3 62.4576 80.3 72.3577 70 85.5576C64.3 92.8577 60.6 101.158 57.3 109.658C53.1 120.158 51.2 130.958 51.7 142.258C52 148.258 52.1 154.258 52.3 160.258C52.5 165.258 51.4 169.958 49.3 174.458C47.4 178.558 44.4 181.558 40.4 183.458C32.8 187.058 24.9 188.158 16.6 186.158C11.3 184.858 7.4 181.858 4.9 176.958C2.8 172.958 1.3 168.758 0.9 164.258C0.6 160.158 0.3 156.258 0 152.658Z" fill="black"/>
</mask>
<g mask="url(#mask0_2_1154)">
<path d="M-3.3998 158.7C-2.7998 159.8 -2.5998 160.7 -1.9998 161.4C-0.399805 163.1 1.1002 164.8 2.9002 166.3C15.9002 177.1 30.7002 183.8 47.3002 186.4C53.0002 187.3 58.7002 187.8 64.5002 186.9C65.5002 186.7 66.5002 186.5 67.5002 186.2C69.2002 185.7 69.4002 185.5 70.3002 183.9C71.4002 185 71.5002 185.7 70.4002 186.5C69.3002 187.3 68.1002 187.9 66.8002 188.2C63.6002 189.1 60.4002 189.3 57.1002 189.1C36.6002 187.8 18.3002 180.8 2.5002 167.7C0.700195 166.2 -0.999804 164.4 -2.5998 162.7C-3.1998 162 -3.7998 161.2 -4.1998 160.3C-4.8998 158.5 -4.1998 157.2 -2.1998 157.2C-0.399805 157.2 1.5002 157.4 3.2002 157.8C11.3002 159.8 19.3002 161.9 27.3002 164C32.0002 165.2 36.8002 166.2 41.7002 166.5C43.5002 166.6 45.4002 166.4 47.2002 166.2C47.9002 166.1 48.6002 165.7 49.8002 165.2C48.7002 164.1 48.1002 163.2 47.2002 162.6C44.9002 161 42.6002 159.4 40.3002 157.9C35.2002 154.5 29.9002 151.3 24.9002 147.8C12.7002 139.2 3.8002 127.9 -1.9998 114.1C-2.9998 111.8 -3.6998 109.3 -4.3998 106.8C-4.7998 105.5 -4.7998 104.1 -4.7998 102.8C-4.7998 99.8001 -3.2998 98.7001 -0.399805 99.6001C1.2002 100.1 2.7002 100.8 4.2002 101.7C9.2002 104.7 14.1002 107.8 19.1002 110.9C28.6002 116.9 38.1002 122.7 48.4002 127.2C52.1002 128.8 55.8002 130.3 59.8002 130.9C60.5002 131 61.1002 131 62.4002 131C61.4002 129.6 60.8002 128.7 60.1002 127.9C57.9002 125.5 55.6002 123.1 53.4002 120.7C42.9002 109.8 34.0002 98.1001 27.6002 84.5001C24.0002 76.9001 21.2002 69.0001 19.9002 60.7001C19.4002 57.4001 18.9002 54.0001 19.5002 50.7001C19.5002 50.5001 19.6002 50.2001 19.6002 50.0001C20.4002 45.6001 23.2002 44.0001 27.3002 46.0001C29.2002 46.9001 31.0002 48.0001 32.5002 49.3001C36.8002 53.0001 41.1002 56.7001 45.3002 60.5001C53.2002 67.6001 61.0002 74.9001 69.0002 81.8001C72.1002 84.5001 75.7002 86.7001 79.2002 89.0001C80.5002 89.9001 82.1002 90.3001 83.5002 90.9001C83.7002 90.8001 83.8002 90.7001 84.0002 90.5001C83.8002 89.7001 83.7002 88.9001 83.3002 88.2001C82.2002 86.0001 81.0002 83.8001 79.9002 81.6001C73.7002 69.8001 68.4002 57.7001 64.6002 44.9001C61.8002 35.6001 60.4002 26.2001 61.0002 16.5001C61.1002 14.2001 61.6002 11.9001 62.0002 9.6001C62.2002 8.6001 62.6002 7.6001 63.2002 6.7001C64.6002 4.2001 66.7002 3.7001 69.0002 5.3001C70.4002 6.2001 71.7002 7.4001 72.7002 8.7001C75.4002 12.0001 78.1002 15.5001 80.6002 19.0001C87.5002 28.5001 94.1002 38.2001 102 47.0001C105.9 51.3001 110 55.3001 114.1 59.3001C115.2 60.3001 116.5 61.1001 117.7 62.0001C117.9 61.9001 118 61.8001 118.2 61.7001C117.8 60.4001 117.3 59.0001 116.9 57.7001C114.4 50.4001 111.6 43.1001 109.3 35.7001C106.9 27.9001 105.1 19.9001 104.4 11.8001C104.2 8.9001 104.2 6.1001 104.3 3.2001C104.3 2.3001 104.5 1.5001 104.8 0.600101C105.6 -2.0999 107.5 -2.6999 109.7 -0.999899C110.6 -0.299899 111.4 0.500101 112.1 1.4001C113.9 3.6001 115.6 5.7001 117.3 8.0001C129.7 25.0001 142.4 41.8001 155.9 57.9001C159.5 62.2001 163.3 66.3001 167.2 70.7001C166.6 70.3001 166.1 70.2001 165.8 69.8001C161.4 65.1001 156.8 60.5001 152.7 55.5001C140 40.4001 127.9 24.7001 116.3 8.7001C114.4 6.1001 112.3 3.7001 110.3 1.3001C109.6 0.500101 108.6 0.000100851 107.8 -0.699899C106.4 0.500101 106.4 1.9001 106.3 3.3001C105.9 9.3001 106.8 15.1001 108 20.9001C110.4 32.6001 114 43.9001 118.5 55.0001C119.2 56.7001 119.8 58.4001 120.3 60.2001C120.5 60.9001 120.6 61.8001 120.6 62.6001C120.5 63.9001 119.5 64.6001 118.2 64.2001C117 63.8001 115.8 63.1001 114.9 62.3001C111.7 59.5001 108.5 56.7001 105.6 53.7001C96.9002 44.8001 89.6002 34.8001 82.5002 24.6001C79.4002 20.2001 76.3002 15.9001 73.1002 11.6001C71.9002 10.0001 70.5002 8.6001 69.0002 7.3001C67.1002 5.7001 65.7002 6.1001 64.7002 8.4001C63.4002 11.5001 63.2002 14.8001 63.1002 18.1001C62.9002 25.6001 63.9002 32.9001 65.8002 40.2001C69.5002 54.4001 75.4002 67.6001 82.1002 80.6001C83.2002 82.8001 84.4002 85.0001 85.5002 87.2001C85.9002 88.1001 86.2002 89.2001 86.3002 90.2001C86.5002 92.1001 85.4002 93.1001 83.5002 92.8001C82.3002 92.6001 81.0002 92.2001 79.9002 91.5001C76.9002 89.7001 73.9002 87.8001 71.1002 85.7001C62.5002 79.5001 55.0002 72.3001 47.5002 65.2001C43.0002 60.9001 38.4002 56.7001 33.8002 52.5001C32.3002 51.1001 30.5002 49.9001 28.8002 48.8001C27.8002 48.1001 26.7002 47.6001 25.6002 47.2001C23.5002 46.4001 22.2002 47.1001 21.6002 49.2001C21.2002 50.6001 21.0002 52.0001 21.0002 53.5001C20.9002 59.5001 22.4002 65.2001 24.2002 70.9001C28.7002 85.1001 36.2002 97.7001 45.7002 109.1C49.7002 113.9 54.0002 118.4 58.2002 123.1C59.6002 124.6 61.0002 126.2 62.3002 127.8C62.9002 128.5 63.3002 129.2 63.6002 130.1C64.1002 131.7 63.4002 132.9 61.7002 132.9C60.3002 133 58.8002 132.8 57.4002 132.5C52.2002 131.3 47.3002 129.1 42.4002 126.7C33.6002 122.4 25.4002 117.2 17.2002 111.9C12.9002 109.1 8.60019 106.4 4.2002 103.7C2.6002 102.7 0.800195 101.9 -0.999805 101.2C-2.9998 100.5 -3.7998 101.1 -3.6998 103.1C-3.5998 104.8 -3.3998 106.6 -2.7998 108.3C-0.199805 117 4.5002 124.6 10.0002 131.7C15.2002 138.4 21.5002 143.9 28.6002 148.6C33.3002 151.7 38.0002 154.6 42.7002 157.7C44.3002 158.7 45.9002 159.8 47.5002 160.9C48.2002 161.4 48.8002 161.9 49.3002 162.4C50.3002 163.3 51.0002 164.4 50.6002 165.8C50.2002 167.1 49.0002 167.6 47.8002 167.7C45.5002 167.9 43.2002 168.3 40.9002 168C36.9002 167.5 32.8002 166.9 28.9002 165.9C21.1002 164 13.5002 161.8 5.7002 159.8C4.0002 159.4 2.3002 159 0.500196 158.7C-0.399805 158.5 -1.6998 158.7 -3.3998 158.7Z" fill="#FBE8DE"/>
</g>
</svg>
