<svg width="211" height="143" viewBox="0 0 211 143" fill="none" xmlns="http://www.w3.org/2000/svg">
<path d="M178.277 142.118C183.289 142.303 188.734 141.439 193.932 139.339C203.585 135.386 208.782 127.912 210.7 117.906C211.072 115.806 210.886 113.644 210.453 111.544C209.772 108.456 208.782 105.553 207.173 102.835C204.698 98.6348 201.852 94.6818 198.263 91.4082C195.169 88.5669 191.952 85.8492 188.61 83.3168C183.165 79.2403 177.534 75.349 172.027 71.3342C169.552 69.543 167.015 67.8135 164.169 66.5782C163.86 66.4547 163.55 66.2694 163.241 66.0841C148.514 57.1898 133.787 48.2955 119.061 39.3394C109.284 33.4099 99.5696 27.3568 89.9168 21.3655C80.4496 15.4977 70.735 10.1241 60.3397 5.98579C54.4614 3.63868 48.3974 1.72393 42.1479 0.612146C36.0839 -0.437876 30.1438 -0.129046 24.2036 1.47687C13.3751 4.37987 6.0118 11.1124 2.11356 21.6126C-1.72281 31.9893 -0.175891 41.8101 5.4549 51.1367C7.55871 54.5956 10.3432 57.6222 13.3133 60.3399C17.1496 63.8605 21.3572 66.9488 25.5649 69.9136C37.9402 78.5608 50.8106 86.4051 64.1141 93.57C78.5933 101.352 92.9487 109.32 107.366 117.165C115.224 121.426 123.021 125.812 131.312 129.332C137.129 131.803 143.007 134.088 148.885 136.559C158.043 140.45 167.758 141.933 178.277 142.118Z" fill="#FF90E7"/>
<mask id="mask0_2_442" style="mask-type:alpha" maskUnits="userSpaceOnUse" x="0" y="0" width="211" height="143">
<path d="M178.277 142.118C183.289 142.303 188.734 141.439 193.932 139.339C203.585 135.386 208.782 127.912 210.7 117.906C211.072 115.806 210.886 113.644 210.453 111.544C209.772 108.456 208.782 105.553 207.173 102.835C204.698 98.6348 201.852 94.6818 198.263 91.4082C195.169 88.5669 191.952 85.8492 188.61 83.3168C183.165 79.2403 177.534 75.349 172.027 71.3342C169.552 69.543 167.015 67.8135 164.169 66.5782C163.86 66.4547 163.55 66.2694 163.241 66.0841C148.514 57.1898 133.787 48.2955 119.061 39.3394C109.284 33.4099 99.5696 27.3568 89.9168 21.3655C80.4496 15.4977 70.735 10.1241 60.3397 5.98579C54.4614 3.63868 48.3974 1.72393 42.1479 0.612146C36.0839 -0.437876 30.1438 -0.129046 24.2036 1.47687C13.3751 4.37987 6.0118 11.1124 2.11356 21.6126C-1.72281 31.9893 -0.175891 41.8101 5.4549 51.1367C7.55871 54.5956 10.3432 57.6222 13.3133 60.3399C17.1496 63.8605 21.3572 66.9488 25.5649 69.9136C37.9402 78.5608 50.8106 86.4051 64.1141 93.57C78.5933 101.352 92.9487 109.32 107.366 117.165C115.224 121.426 123.021 125.812 131.312 129.332C137.129 131.803 143.007 134.088 148.885 136.559C158.043 140.45 167.758 141.933 178.277 142.118Z" fill="black"/>
</mask>
<g mask="url(#mask0_2_442)">
<path d="M233.886 120.026C233.628 105.945 229.819 94.2004 221.878 83.8832C216.52 76.9401 210.516 70.5811 203.737 65.0007C189.728 53.3208 175.525 41.9654 160.87 31.129C156.157 27.6251 151.316 24.3807 146.538 21.0714C144.86 19.9683 143.117 18.9949 141.309 18.0865C140.276 17.5674 139.179 17.3078 138.081 17.1781C136.144 16.9185 134.401 17.5025 132.981 18.93C132.271 19.6438 131.69 20.4225 131.173 21.266C129.947 23.1478 128.849 25.0295 127.687 26.9762C120.005 39.5645 112.322 52.1528 104.704 64.806C100.444 71.8788 96.3118 79.0814 91.9219 86.1543C86.8218 94.3951 81.3989 102.441 75.524 110.163C75.3304 110.422 75.1367 110.682 74.943 110.942C73.5227 113.018 73.5227 114.77 75.0076 116.846C75.524 117.625 76.1696 118.339 76.7507 118.988C83.5293 126.774 91.2117 133.458 100.056 138.844C111.354 145.722 122.716 152.47 134.66 158.245C146.796 164.15 159.45 168.497 172.749 170.963C179.657 172.261 186.564 172.65 193.537 171.158C194.828 170.898 196.055 170.639 197.281 170.12C216.971 162.528 229.56 148.901 233.176 127.553C233.628 124.763 233.692 121.843 233.886 120.026Z" fill="#27DAB7"/>
<mask id="mask1_2_442" style="mask-type:alpha" maskUnits="userSpaceOnUse" x="73" y="17" width="161" height="156">
<path d="M233.886 120.026C233.628 105.945 229.819 94.2004 221.878 83.8832C216.52 76.9401 210.516 70.5811 203.737 65.0007C189.728 53.3208 175.525 41.9654 160.87 31.129C156.157 27.6251 151.316 24.3807 146.538 21.0714C144.86 19.9683 143.117 18.9949 141.309 18.0865C140.276 17.5674 139.179 17.3078 138.081 17.1781C136.144 16.9185 134.401 17.5025 132.981 18.93C132.271 19.6438 131.69 20.4225 131.173 21.266C129.947 23.1478 128.849 25.0295 127.687 26.9762C120.005 39.5645 112.322 52.1528 104.704 64.806C100.444 71.8788 96.3118 79.0814 91.9219 86.1543C86.8218 94.3951 81.3989 102.441 75.524 110.163C75.3304 110.422 75.1367 110.682 74.943 110.942C73.5227 113.018 73.5227 114.77 75.0076 116.846C75.524 117.625 76.1696 118.339 76.7507 118.988C83.5293 126.774 91.2117 133.458 100.056 138.844C111.354 145.722 122.716 152.47 134.66 158.245C146.796 164.15 159.45 168.497 172.749 170.963C179.657 172.261 186.564 172.65 193.537 171.158C194.828 170.898 196.055 170.639 197.281 170.12C216.971 162.528 229.56 148.901 233.176 127.553C233.628 124.763 233.692 121.843 233.886 120.026Z" fill="#EA552B"/>
</mask>
<g mask="url(#mask1_2_442)">
<path d="M68.0358 75.7686C66.9842 76.2021 65.9138 76.6031 64.8622 77.0367C57.7938 79.9025 50.3996 81.828 42.8675 83.1389C42.234 83.2442 41.5955 83.2657 40.9707 83.2359C40.7515 83.2322 40.4009 83.0007 40.372 82.8004C40.2918 82.5863 40.5096 82.287 40.6659 81.8061C41.0757 82.7413 41.6391 82.5896 42.1699 82.4567C48.639 81.1086 55.0655 79.6116 61.3114 77.3508C63.7501 76.4636 66.1325 75.4787 68.5525 74.5589C69.0783 74.3421 69.4639 74.0327 69.8068 73.5743C73.7403 68.1353 78.1511 63.0717 83.2544 58.6064C86.3236 55.8796 89.5432 53.4132 93.2174 51.5089C93.8546 51.1844 94.5294 50.925 95.228 50.782C96.4249 50.525 97.1927 51.2535 96.979 52.4618C96.824 53.2456 96.4686 54.0584 96.0757 54.806C95.0634 56.7358 93.6629 58.3689 92.1596 59.9746C89.6588 62.6335 86.8674 64.9395 83.8982 67.0878C81.4121 68.8703 78.8646 70.4713 76.1906 71.9283C74.6746 72.7602 73.0697 73.5132 71.4973 74.2474C70.9578 74.5155 70.5071 74.8625 70.1504 75.3722C68.0892 78.3416 66.1682 81.4035 64.6117 84.6457C63.7571 86.3976 63.0239 88.2096 62.5663 90.1229C62.2412 91.439 62.0187 92.7825 62.0993 94.1247C62.2389 96.1706 63.0946 97.803 64.7177 99.0358C65.8123 99.8794 67.0082 100.447 68.2968 100.875C70.4957 101.602 72.7207 101.923 75.0196 102.071C80.5965 102.41 86.0616 101.728 91.4351 100.362C92.9951 99.9821 94.4799 99.472 96.0211 99.0596C96.3516 98.9556 96.5932 98.7727 96.7596 98.4596C100.047 92.3522 104.531 87.1158 109.301 82.1485C113.946 77.3402 118.952 72.9313 124.141 68.764C127.917 65.759 131.783 62.8329 135.648 59.9068C138.097 58.0592 140.672 56.3555 143.364 54.9311C144.164 54.5126 145.021 54.1918 145.863 53.9223C146.259 53.7807 146.697 53.7881 147.103 53.8142C147.966 53.8803 148.621 54.4135 148.722 55.2661C148.814 55.951 148.827 56.7248 148.648 57.3922C148.313 58.5405 147.894 59.6938 147.367 60.7357C145.764 64.048 143.567 67.0086 141.263 69.8578C137.137 74.8875 132.42 79.3464 127.324 83.3735C121.987 87.5835 116.367 91.3052 110.396 94.4924C106.48 96.5796 102.395 98.3739 98.1736 99.8565C97.8106 99.9793 97.4663 100.135 97.2724 100.55C96.2238 102.718 95.3481 104.96 95.0371 107.352C94.9146 108.118 94.8948 108.91 94.9076 109.684C94.9949 112.541 96.259 114.806 98.6297 116.431C100.21 117.515 101.998 118.132 103.874 118.524C106.09 118.981 108.338 119.115 110.608 119.063C115.838 118.951 120.947 117.954 125.966 116.575C134.399 114.268 142.448 110.922 150.126 106.706C150.484 106.5 150.851 106.158 151.082 105.807C157.344 95.6819 165.151 86.8785 173.79 78.766C175.814 76.8597 177.978 75.0459 180.274 73.4601C181.52 72.6108 182.822 71.8591 184.279 71.4517C184.693 71.3426 185.178 71.2799 185.616 71.2873C187.015 71.3043 187.909 72.1767 187.841 73.5616C187.783 74.2891 187.661 75.0541 187.366 75.7454C186.863 76.9037 186.257 78.0345 185.595 79.0677C183.391 82.4666 180.691 85.4574 177.865 88.3043C172.686 93.4645 167 98.049 160.879 102.104C158.173 103.883 155.361 105.55 152.618 107.264C152.292 107.452 151.972 107.724 151.773 108.055C149.895 111.266 148.245 114.649 147.334 118.256C146.679 120.805 146.41 123.346 146.902 125.927C147.245 127.725 147.933 129.367 149.082 130.83C150.465 132.549 152.227 133.572 154.332 134.136C156.18 134.631 158.041 134.772 159.956 134.707C163.872 134.573 167.663 133.773 171.368 132.675C177.886 130.735 184.056 128.041 190.059 124.835C191.087 124.285 192.096 123.702 193.157 123.134C193.547 122.908 193.765 122.609 193.856 122.166C196.395 112.281 201.645 104.085 209.414 97.4732C212.828 94.5911 216.593 92.2435 220.885 90.8072C222.007 90.4199 223.222 90.1954 224.392 90.041C225.077 89.9494 225.855 90.0205 226.523 90.1994C227.839 90.5245 228.627 91.5885 228.54 92.9408C228.473 93.8035 228.291 94.69 227.898 95.4377C227.205 96.7926 226.428 98.1526 225.524 99.3687C223.208 102.572 220.376 105.335 217.47 107.968C210.97 113.847 203.897 118.886 196.37 123.362C195.751 123.719 195.441 124.158 195.299 124.891C194.472 129.621 195.085 134.215 196.652 138.735C197.894 142.314 199.597 145.714 201.397 149.058C202.685 151.439 204.038 153.782 205.456 156.088C206.184 157.274 207.028 158.435 207.887 159.546C208.398 160.205 209.006 160.809 210.009 160.967C209.456 161.287 209.031 161.228 208.662 160.964C208.031 160.547 207.4 160.131 206.88 159.606C205.288 158.052 204.03 156.174 202.856 154.291C200.27 150.186 197.976 145.912 195.896 141.558C193.543 136.581 192.457 131.393 193.169 125.861C193.191 125.674 193.181 125.506 193.18 125.203C192.803 125.377 192.51 125.547 192.231 125.664C187.422 128.31 182.477 130.645 177.353 132.518C173.02 134.108 168.602 135.401 164.06 136.027C162.089 136.297 160.113 136.483 158.118 136.333C156.798 136.227 155.492 136.07 154.208 135.726C149.574 134.539 146.698 131.512 145.48 126.921C144.83 124.519 144.871 122.109 145.298 119.692C145.903 116.305 147.162 113.148 148.715 110.125C148.835 109.882 148.955 109.639 149.075 109.396C149.089 109.345 149.051 109.28 149.06 109.144C147.981 109.681 146.902 110.217 145.855 110.734C136.952 115.007 127.722 118.339 117.968 119.935C114.884 120.457 111.767 120.694 108.629 120.596C106.335 120.532 104.064 120.281 101.879 119.503C100.693 119.103 99.5344 118.6 98.4499 117.924C95.1826 115.948 93.589 112.962 93.5627 109.158C93.5519 106.734 94.1521 104.392 95.0279 102.15C95.203 101.702 95.3782 101.253 95.5808 100.702C95.1664 100.812 94.8497 100.864 94.5517 100.949C88.7601 102.644 82.8444 103.673 76.7742 103.532C74.126 103.455 71.5003 103.192 68.9333 102.504C67.323 102.045 65.8053 101.446 64.4164 100.468C61.9756 98.7963 60.7578 96.4616 60.7493 93.5154C60.7325 91.8326 61.0563 90.2136 61.5341 88.6358C62.2783 86.1664 63.3168 83.831 64.5656 81.6344C65.5229 79.91 66.6017 78.2456 67.6103 76.535C67.763 76.2732 67.9345 76.0441 68.0871 75.7823C68.1247 75.8474 68.1059 75.8149 68.0358 75.7686ZM98.739 98.0546C99.0232 98.0207 99.1397 97.9968 99.2561 97.973C102.37 96.8264 105.37 95.4844 108.329 93.9935C113.868 91.1858 119.056 87.8436 124.037 84.1433C129.305 80.1901 134.162 75.8238 138.48 70.9004C141.254 67.7368 143.779 64.3691 145.744 60.631C146.243 59.6918 146.654 58.6737 147.013 57.6419C147.188 57.1936 147.255 56.6339 147.276 56.1443C147.306 55.5195 147.11 55.3293 146.495 55.4672C145.913 55.5863 145.335 55.7893 144.796 56.0575C141.554 57.5823 138.612 59.6279 135.745 61.8037C131.652 64.8613 127.615 68.0166 123.648 71.2182C118.525 75.348 113.654 79.7656 109.145 84.5826C105.456 88.4915 102.048 92.5857 99.2245 97.1667C99.1182 97.3583 98.9655 97.62 98.739 98.0546ZM196.23 121.316C196.607 121.142 196.802 121.029 197.03 120.897C204.11 116.549 210.787 111.653 216.897 105.999C219.594 103.53 222.165 100.917 224.292 97.9104C225.005 96.891 225.611 95.7602 226.184 94.6481C226.443 94.1948 226.543 93.6163 226.596 93.1079C226.664 92.5482 226.443 92.2416 225.93 92.104C225.622 92.0215 225.249 91.9765 224.965 92.0104C224.112 92.1121 223.227 92.2326 222.417 92.4832C218.795 93.5762 215.521 95.4228 212.511 97.7251C204.877 103.521 199.587 111.045 196.579 120.116C196.431 120.462 196.367 120.802 196.23 121.316ZM154.124 104.311C154.143 104.344 154.213 104.39 154.232 104.422C154.33 104.366 154.446 104.342 154.544 104.286C162.457 99.5003 169.821 93.9901 176.435 87.4809C179.234 84.7367 181.855 81.8348 184.017 78.5899C184.712 77.5379 185.285 76.4259 185.839 75.2813C186.079 74.7954 186.161 74.1844 186.228 73.6247C186.268 73.1677 186.052 72.9449 185.582 72.9563C185.078 72.9865 184.58 73.1006 184.087 73.2986C182.128 74.0392 180.488 75.3331 178.848 76.627C175.443 79.374 172.259 82.4276 169.234 85.6063C163.893 91.1635 158.921 96.9848 154.61 103.423C154.509 103.699 154.342 104.012 154.124 104.311ZM95.8945 51.786C95.1156 51.7149 94.4784 52.0394 93.8738 52.3451C91.8508 53.4263 89.9267 54.7541 88.0916 56.1608C82.0894 60.7979 76.9814 66.3075 72.3744 72.3089C72.2492 72.468 72.1617 72.6921 71.9627 73.024C72.8465 72.6005 73.5025 72.3086 74.1723 71.9653C78.5814 69.6801 82.765 67.0043 86.564 63.8127C89.2578 61.5631 91.8251 59.1696 93.8725 56.2516C94.5258 55.3536 95.0389 54.3631 95.5707 53.4051C95.8811 52.9655 96.0512 52.4333 95.8945 51.786Z" fill="black"/>
</g>
</g>
</svg>
