<svg xmlns="http://www.w3.org/2000/svg" viewBox="0 0 500 500" width="500" height="500" style="width: 100%; height: 100%; transform: translate3d(0px, 0px, 0px);" preserveAspectRatio="xMidYMid meet"><defs><clipPath id="__lottie_element_31"><rect width="500" height="500" x="0" y="0"></rect></clipPath></defs><g clip-path="url(#__lottie_element_31)"><g style="display: block;" transform="matrix(1.027999997138977,0,0,1.027999997138977,-6,-4)" opacity="1"><g opacity="1" transform="matrix(1,0,0,1,157.4029998779297,252.14599609375)"><path stroke-linecap="round" stroke-linejoin="round" fill-opacity="0" stroke="rgb(0,0,0)" stroke-opacity="1" stroke-width="14" d=" M92.93399810791016,-0.028999999165534973 C92.9469985961914,-0.008999999612569809 92.9530029296875,0.0010000000474974513 92.9530029296875,0.0010000000474974513 C92.9530029296875,0.0010000000474974513 44.290000915527344,76.27400207519531 -7.051000118255615,76.27400207519531 C-58.391998291015625,76.27400207519531 -92.9530029296875,42.154998779296875 -92.9530029296875,0.0010000000474974513 C-92.9530029296875,-42.15399932861328 -58.391998291015625,-76.27400207519531 -7.051000118255615,-76.27400207519531 C-7.051000118255615,-76.27400207519531 -7.051000118255615,-76.27400207519531 -7.051000118255615,-76.27400207519531 C36.87300109863281,-76.27400207519531 78.83599853515625,-20.445999145507812 90.04499816894531,-4.315000057220459"></path></g><g opacity="1" transform="matrix(1,0,0,1,343.8529968261719,252.14599609375)"><path stroke-linecap="round" stroke-linejoin="round" fill-opacity="0" stroke="rgb(0,0,0)" stroke-opacity="1" stroke-width="14" d=" M-89.40399932861328,-5.0980000495910645 C-91.70700073242188,-1.8980000019073486 -92.9540023803711,0.0010000000474974513 -92.9540023803711,0.0010000000474974513 C-92.9540023803711,0.0010000000474974513 -42.867000579833984,76.27400207519531 8.475000381469727,76.27400207519531 C59.816001892089844,76.27400207519531 92.9540023803711,42.08700180053711 92.9540023803711,0.0010000000474974513 C92.9540023803711,-42.08599853515625 59.832000732421875,-76.27400207519531 8.475000381469727,-76.27400207519531 C8.475000381469727,-76.27400207519531 8.475000381469727,-76.27400207519531 8.475000381469727,-76.27400207519531 C-34.76499938964844,-76.27400207519531 -77.11499786376953,-22.17300033569336 -89.40399932861328,-5.0980000495910645"></path></g></g></g></svg>