<svg xmlns="http://www.w3.org/2000/svg" viewBox="0 0 500 500" width="500" height="500" style="width: 100%; height: 100%; transform: translate3d(0px, 0px, 0px);" preserveAspectRatio="xMidYMid meet"><defs><clipPath id="__lottie_element_45"><rect width="500" height="500" x="0" y="0"></rect></clipPath></defs><g clip-path="url(#__lottie_element_45)"><g style="display: block;" transform="matrix(-1.1951429843902588,2.5426435470581055,-2.5426435470581055,-1.1951429843902588,566.284423828125,179.05686950683594)" opacity="1"><g opacity="1" transform="matrix(1,0,0,1,68.2229995727539,32.974998474121094)"><path stroke-linecap="round" stroke-linejoin="round" fill-opacity="0" stroke="rgb(0,0,0)" stroke-opacity="1" stroke-width="6" d=" M-13.277000427246094,-19.17799949645996 C-13.277000427246094,-19.17799949645996 13.277000427246094,-1.475000023841858 13.277000427246094,-1.475000023841858 C13.277000427246094,-1.475000023841858 -10.32699966430664,19.17799949645996 -10.32699966430664,19.17799949645996"></path></g><g opacity="1" transform="matrix(1,0,0,1,68.53600311279297,94.66400146484375)"><path stroke-linecap="round" stroke-linejoin="round" fill-opacity="0" stroke="rgb(0,0,0)" stroke-opacity="1" stroke-width="6" d=" M60.20800018310547,21.593000411987305 C45.98899841308594,50.917999267578125 10.687999725341797,63.16400146484375 -18.636999130249023,48.94499969482422 C-47.96200180053711,34.72600173950195 -60.20800018310547,-0.5740000009536743 -45.987998962402344,-29.89900016784668 C-36.125,-50.24100112915039 -15.508000373840332,-63.159000396728516 7.0980000495910645,-63.16400146484375 C7.0980000495910645,-63.16400146484375 12.96399974822998,-63.16400146484375 12.96399974822998,-63.16400146484375"></path></g><g opacity="1" transform="matrix(1,0,0,1,133.71800231933594,94.93599700927734)"><path stroke-linecap="round" stroke-linejoin="round" fill-opacity="0" stroke="rgb(0,0,0)" stroke-opacity="1" stroke-width="6" d=" M0.6330000162124634,-10.32699966430664 C0.8299999833106995,-8.359000205993652 0.9279999732971191,-6.392000198364258 0.9279999732971191,-4.426000118255615 C0.9319999814033508,0.5509999990463257 0.3070000112056732,5.507999897003174 -0.9319999814033508,10.32699966430664"></path></g><g opacity="1" transform="matrix(1,0,0,1,127.39299774169922,63.95600128173828)"><path stroke-linecap="round" stroke-linejoin="round" fill-opacity="0" stroke="rgb(0,0,0)" stroke-opacity="1" stroke-width="6" d=" M-4.550000190734863,-8.85200023651123 C-0.5320000052452087,-3.510999917984009 2.5450000762939453,2.4769999980926514 4.550000190734863,8.85200023651123"></path></g><g opacity="1" transform="matrix(1,0,0,1,106.61499786376953,41.03300094604492)"><path stroke-linecap="round" stroke-linejoin="round" fill-opacity="0" stroke="rgb(0,0,0)" stroke-opacity="1" stroke-width="6" d=" M-7.375999927520752,-4.630000114440918 C-2.0269999504089355,-2.2909998893737793 2.944999933242798,0.8309999704360962 7.375999927520752,4.630000114440918"></path></g></g></g></svg>